<?xml version="1.0" standalone="no"?>
<!DOCTYPE svg PUBLIC "-//W3C//DTD SVG 1.1//EN" "http://www.w3.org/Graphics/SVG/1.1/DTD/svg11.dtd" >
<svg>
<metadata>
Created by FontForge 20090914 at Thu Feb  5 00:40:33 2015
 By www-data
Copyright (C) 1993; Type Market Ltd. Moscow, 119136, Box 20; phone:(095)1427712; Created by A.Kustov
</metadata>
<defs>
<font id="New_Zelek" horiz-adv-x="330" >
  <font-face 
    font-family="New_Zelek"
    font-weight="400"
    font-stretch="normal"
    units-per-em="1000"
    panose-1="0 0 0 0 0 0 0 0 0 0"
    ascent="800"
    descent="-200"
    x-height="740"
    cap-height="758"
    bbox="-114 -281 1254 968"
    underline-thickness="50"
    underline-position="-75"
    unicode-range="U+0020-U+2122"
  />
<missing-glyph horiz-adv-x="719" 
d="M44 0v719h631v-719h-631zM631 44v631h-543v-631h543z" />
    <glyph glyph-name=".notdef" horiz-adv-x="719" 
d="M44 0v719h631v-719h-631zM631 44v631h-543v-631h543z" />
    <glyph glyph-name="space" unicode=" " horiz-adv-x="404" 
 />
    <glyph glyph-name="exclam" unicode="!" horiz-adv-x="284" 
d="M227 740l-197 -178v-353h197v531zM129 193c29.333 0 54.166 -10.167 74.499 -30.5s30.5 -45.166 30.5 -74.499s-10.167 -54.166 -30.5 -74.499s-45.166 -30.5 -74.499 -30.5s-54.166 10.167 -74.499 30.5s-30.5 45.166 -30.5 74.499s10.167 54.166 30.5 74.499
s45.166 30.5 74.499 30.5z" />
    <glyph glyph-name="quotedbl" unicode="&#x22;" horiz-adv-x="486" 
d="M186 443h-129l-27 295h182zM418 443h-129l-27 295h183z" />
    <glyph glyph-name="numbersign" unicode="#" horiz-adv-x="689" 
d="M638 315l-20 -125h-100l-32 -190h-143l30 190h-105l-31 -190h-142l31 190h-101l19 125h101l17 107h-101l20 125h100l32 190h142l-31 -190h106l31 190h143l-30 -190h97l-19 -125h-98l-17 -107h101zM411 422h-107l-17 -107h106z" />
    <glyph glyph-name="dollar" unicode="$" horiz-adv-x="640" 
d="M52 0l198.999 0.000976562v-21h197v60c29.333 9.33301 53.333 29.333 72 60c22.667 37.333 34 85.666 34 144.999s-21.333 110.666 -64 153.999c-40 40.667 -85 61 -135 61h-81c-12.667 0 -24.667 4 -36 12c-14.667 10.667 -22 23.667 -22 39s6.33301 27.833 19 37.5
s26.334 14.5 41.001 14.5h210l182 178h-220v26h-197v-26h-28c-42 0 -81 -22.833 -117 -68.5s-54 -99.5 -54 -161.5c0 -72.667 21 -129 63 -169s97.667 -60 167 -60c50.667 0 76 -17.333 76 -52c0 -13.333 -5.16699 -25.166 -15.5 -35.499s-21.833 -15.5 -34.5 -15.5h-256
v-178z" />
    <glyph glyph-name="percent" unicode="%" horiz-adv-x="1051" 
d="M418 522c0 -65.333 -15.333 -117.667 -46 -157c-34 -43.333 -82.667 -65 -146 -65c-62 0 -110.333 22 -145 66c-32 40.667 -48 93 -48 157c0 64.667 15.667 117 47 157c34.667 44 83.667 66 147 66c61.333 0 109.333 -22.333 144 -67c31.333 -40.667 47 -93 47 -157z
M571 736.999h137l-215 -737h-137zM1024 211.999c0 -66 -15.334 -118.333 -46.001 -157c-33.333 -42.667 -82 -64 -146 -64c-62 0 -110.333 22 -145 66c-32 40.667 -48 92.667 -48 156c0 65.333 15.667 118 47 158c34 44 83 66 147 66c60.667 0 108.334 -22.667 143.001 -68
c32 -42 48 -94.333 48 -157zM226.999 645.999c-24.667 0 -41 -15.667 -49 -47c-4.66699 -18 -7 -43.333 -7 -76c0 -34.667 2 -60 6 -76c8 -32 24.333 -48 49 -48c23.333 0 39 15.667 47 47c4 16 6 40.667 6 74c0 36 -1.66699 61.333 -5 76c-7.33301 33.333 -23 50 -47 50z
M884.999 208.999c0 36.667 -1.66699 62.333 -5 77c-7.33301 33.333 -23 50 -47 50s-40 -15.667 -48 -47c-4.66699 -18 -7 -43.333 -7 -76c0 -34.667 2 -60 6 -76c8 -32 24.333 -48 49 -48c22.667 0 38 15.667 46 47c4 16 6 40.333 6 73z" />
    <glyph glyph-name="ampersand" unicode="&#x26;" horiz-adv-x="541" 
d="M472 737v-177.001h-86c-14 0 -25.833 -2.66699 -35.5 -8s-14.5 -14.333 -14.5 -27c0 -9.33301 3 -18.5 9 -27.5s10 -15.167 12 -18.5l129 -203h-201c-21.333 0 -38.833 -3.83301 -52.5 -11.5s-20.5 -21.167 -20.5 -40.5s7.33301 -32.666 22 -39.999
c10 -5.33301 26 -8 48 -8h231v-176h-221c-78 0 -140.667 16 -188 48c-56 38 -84 94.333 -84 169c0 59.333 18.833 110.5 56.5 153.5s85.834 64.5 144.501 64.5c-22 20.667 -39 41.667 -51 63c-14.667 26 -22 52.333 -22 79c0 52 19.667 92.333 59 121
c35.333 26 79.666 39 132.999 39h132z" />
    <glyph glyph-name="quotesingle" unicode="'" horiz-adv-x="250" 
d="M186 443h-131l-26 295h183z" />
    <glyph glyph-name="parenleft" unicode="(" horiz-adv-x="315" 
d="M262 0v178c-13.333 10 -24.5 22.5 -33.5 37.5s-13.5 29.167 -13.5 42.5v224c0 16.667 4.5 32.5 13.5 47.5s20.167 26.167 33.5 33.5v185c-70.667 -10.667 -129 -42 -175 -94s-69 -113.667 -69 -185v-192c0 -69.333 23.333 -130.333 70 -183s104.667 -84 174 -94z" />
    <glyph glyph-name="parenright" unicode=")" horiz-adv-x="322" 
d="M24 0c68.667 10 126.166 41.168 172.499 93.501s69.5 113.166 69.5 182.499v191c0 71.333 -23 133.333 -69 186s-103.667 84.334 -173 95.001v-185c12.667 -7.33301 23.334 -18.5 32.001 -33.5s13 -30.833 13 -47.5v-224c0 -12.667 -4.5 -26.834 -13.5 -42.501
s-19.5 -28.167 -31.5 -37.5v-178z" />
    <glyph glyph-name="asterisk" unicode="*" horiz-adv-x="534" 
d="M317 738v-133l122 43l39 -120l-122 -41l80 -108l-103 -74l-79 108l-82 -108l-106 74l85 108l-127 41l42 120l126 -43v133h125z" />
    <glyph glyph-name="plus" unicode="+" horiz-adv-x="601" 
d="M41 454h153v162h191v-162h153v-174h-153v-161h-191v161h-153v174z" />
    <glyph glyph-name="comma" unicode="," horiz-adv-x="257" 
d="M127 202c29.333 0 54.168 -10.167 74.501 -30.5s30.5 -45.166 30.5 -74.499c0 -20.667 -6 -40.667 -18 -60c-4.66699 -7.33301 -9.66699 -13.333 -15 -18l-112 -101v82c-43.333 18.667 -65 51 -65 97c0 29.333 10.167 54.166 30.5 74.499s45.166 30.5 74.499 30.5z" />
    <glyph glyph-name="hyphen" unicode="-" horiz-adv-x="594" 
d="M44 455h497v-174h-497v174z" />
    <glyph glyph-name="period" unicode="." horiz-adv-x="258" 
d="M126 195c29.333 0 54.166 -10.167 74.499 -30.5s30.5 -45.166 30.5 -74.499s-10.167 -54.166 -30.5 -74.499s-45.166 -30.5 -74.499 -30.5s-54.166 10.167 -74.499 30.5s-30.5 45.166 -30.5 74.499s10.167 54.166 30.5 74.499s45.166 30.5 74.499 30.5z" />
    <glyph glyph-name="slash" unicode="/" horiz-adv-x="363" 
d="M173 806h168l-173 -886h-168z" />
    <glyph glyph-name="zero" unicode="0" horiz-adv-x="851" 
d="M411 750c-102.667 0 -186.666 -33.001 -251.999 -99.001c-68.667 -69.333 -103 -163 -103 -281s34.333 -211.667 103 -281c65.333 -66 149.333 -99 252 -99c103.333 0 187.666 33 252.999 99c69.333 70 104 163.667 104 281c0 118.667 -34 212.334 -102 281.001
c-65.333 66 -150.333 99 -255 99zM571.001 369.999c0 -60 -12.001 -107.332 -36.001 -141.999c-27.333 -40 -68.666 -60 -123.999 -60c-54 0 -94.667 20 -122 60c-24 35.333 -36 82.666 -36 141.999c0 60 11.667 107.333 35 142c27.333 40 68.333 60 123 60
c54 0 95 -20.333 123 -61c24.667 -36 37 -83 37 -141z" />
    <glyph glyph-name="one" unicode="1" horiz-adv-x="394" 
d="M280 0v740h-197l-197 -178h197v-562h197z" />
    <glyph glyph-name="two" unicode="2" horiz-adv-x="663" 
d="M366 740l-122.001 -0.00195312l-197 -178h299c15.333 0 27.333 -4.66699 36 -14s13 -21.666 13 -36.999c0 -12.667 -3.33301 -23.667 -10 -33c-3.33301 -5.33301 -9.66602 -11.666 -18.999 -18.999l-319 -281v-178h545v178h-263l190 165c18 16 33.333 36.333 46 61
c18 34.667 27 71 27 109c0 65.333 -22.833 119.5 -68.5 162.5s-98.167 64.5 -157.5 64.5z" />
    <glyph glyph-name="three" unicode="3" horiz-adv-x="635" 
d="M57 459v-178.001h262c15.333 0 27.333 -4.66699 36 -14s13 -21.666 13 -36.999c0 -14.667 -4.33301 -27 -13 -37s-20.667 -15 -36 -15h-262v-178h300c58.667 0 108.167 21.167 148.5 63.5s60.5 97.833 60.5 166.5c0 32 -8.16699 61.167 -24.5 87.5
s-36.833 43.166 -61.5 50.499c26 14 46.833 33.167 62.5 57.5s23.5 52.833 23.5 85.5c0 68 -19.833 123.167 -59.5 165.5s-89.5 63.5 -149.5 63.5h-103l-197 -178h262c15.333 0 27.333 -4.66699 36 -14s13 -21.666 13 -36.999c0 -14.667 -4.33301 -27 -13 -37
s-20.667 -15 -36 -15h-262z" />
    <glyph glyph-name="four" unicode="4" horiz-adv-x="844" 
d="M489 0h197v549l-197 -172v-96h-165l506 459h-290l-510 -459v-181h459v-100z" />
    <glyph glyph-name="five" unicode="5" horiz-adv-x="700" 
d="M66 281l227 -0.000976562c15.333 0 27.333 -4.66699 36 -14s13 -21.666 13 -36.999c0 -14.667 -4.33301 -27 -13 -37s-20.667 -15 -36 -15h-227v-178h247c70.667 -0 126.667 23.333 168 70c38 43.333 57 97.333 57 162c0 70 -18.667 124.667 -56 164
c-40 42 -96.667 63 -170 63l-49 1v102h239l198 178h-437l-197 -178v-103v-178z" />
    <glyph glyph-name="six" unicode="6" horiz-adv-x="732" 
d="M256 310l474 429.997h-290l-318 -288c-24 -22.667 -44.333 -52 -61 -88c-18.667 -40 -28 -79 -28 -117c0 -77.333 27 -143.666 81 -198.999s119.333 -83 196 -83s142 27.667 196 83s81 121.666 81 198.999c0 49.333 -10 92.333 -30 129
c-11.333 20.667 -31 45.334 -59 74.001l-152 -132c13.333 -5.33301 23.833 -14.666 31.5 -27.999s11.5 -27.666 11.5 -42.999c0 -21.333 -7.66699 -40 -23 -56s-34 -24 -56 -24s-40.833 7.83301 -56.5 23.5s-23.5 34.5 -23.5 56.5c0 13.333 1.33301 24.333 4 33
s10 18.667 22 30z" />
    <glyph glyph-name="seven" unicode="7" horiz-adv-x="867" 
d="M51 245v-261l841 756h-626l-197 -178h333z" />
    <glyph glyph-name="eight" unicode="8" horiz-adv-x="663" 
d="M127 367c-24.667 -18 -42.332 -43 -52.999 -75c-7.33301 -22 -11 -45.667 -11 -71c0 -66 24.833 -121 74.5 -165s112.167 -66 187.5 -66c74.667 0 137.167 22.167 187.5 66.5s75.5 99.166 75.5 164.499c0 26 -4 51 -12 75c-11.333 34 -29.333 57.667 -54 71
c25.333 18.667 42.666 38.834 51.999 60.501s14 46.834 14 75.501c0 70 -25.333 128.667 -76 176s-113 71 -187 71c-73.333 0 -135.333 -23.667 -186 -71s-76 -106 -76 -176c0 -26.667 3.33301 -49.334 10 -68.001c10 -29.333 28 -52 54 -68zM325.002 573
c20 0 36.667 -6.66699 50 -20s20 -30 20 -50s-6.66699 -36.667 -20 -50s-30 -20 -50 -20s-36.667 6.66699 -50 20s-20 30 -20 50s6.66699 36.667 20 50s30 20 50 20zM325.002 291c20 0 36.667 -6.66699 50 -20s20 -30 20 -50s-6.66699 -36.667 -20 -50s-30 -20 -50 -20
s-36.667 6.66699 -50 20s-20 30 -20 50s6.66699 36.667 20 50s30 20 50 20z" />
    <glyph glyph-name="nine" unicode="9" horiz-adv-x="618" 
d="M368 429l-263 -233.997v-248l397 340c24 22.667 44.833 53 62.5 91s26.5 76 26.5 114c0 77.333 -27 143.666 -81 198.999s-119.333 83 -196 83s-142 -27.667 -196 -83s-81 -121.666 -81 -198.999c0 -49.333 10 -92.333 30 -129c11.333 -20.667 31 -45.334 59 -74.001
l152 132c-13.333 5.33301 -23.833 14.666 -31.5 27.999s-11.5 27.666 -11.5 42.999c0 21.333 7.66699 40 23 56s34 24 56 24s40.833 -7.83301 56.5 -23.5s23.5 -34.5 23.5 -56.5c0 -13.333 -1.33301 -24.333 -4 -33s-10 -18.667 -22 -30z" />
    <glyph glyph-name="colon" unicode=":" horiz-adv-x="273" 
d="M121 524c29.333 0 54.166 -10.167 74.499 -30.5s30.5 -45.166 30.5 -74.499s-10.167 -54.166 -30.5 -74.499s-45.166 -30.5 -74.499 -30.5s-54.166 10.167 -74.499 30.5s-30.5 45.166 -30.5 74.499s10.167 54.166 30.5 74.499s45.166 30.5 74.499 30.5zM123 194
c29.333 0 54.166 -10.167 74.499 -30.5s30.5 -45.166 30.5 -74.499s-10.167 -54.166 -30.5 -74.499s-45.166 -30.5 -74.499 -30.5s-54.166 10.167 -74.499 30.5s-30.5 45.166 -30.5 74.499s10.167 54.166 30.5 74.499s45.166 30.5 74.499 30.5z" />
    <glyph glyph-name="semicolon" unicode=";" horiz-adv-x="273" 
d="M121 524c29.333 0 54.166 -10.167 74.499 -30.5s30.5 -45.166 30.5 -74.499s-10.167 -54.166 -30.5 -74.499s-45.166 -30.5 -74.499 -30.5s-54.166 10.167 -74.499 30.5s-30.5 45.166 -30.5 74.499s10.167 54.166 30.5 74.499s45.166 30.5 74.499 30.5zM123 194
c29.333 0 54.168 -10.167 74.501 -30.5s30.5 -45.166 30.5 -74.499c0 -20.667 -6 -40.667 -18 -60c-4.66699 -7.33301 -9.66699 -13.333 -15 -18l-112 -101v82c-43.333 18.667 -65 51 -65 97c0 29.333 10.167 54.166 30.5 74.499s45.166 30.5 74.499 30.5z" />
    <glyph glyph-name="less" unicode="&#x3c;" horiz-adv-x="547" 
d="M500 703v-176l-292 -154l292 -154v-175l-479 256v148z" />
    <glyph glyph-name="equal" unicode="=" horiz-adv-x="636" 
d="M62 574h497v-175h-497v175zM62 337h497v-175h-497v175z" />
    <glyph glyph-name="greater" unicode="&#x3e;" horiz-adv-x="547" 
d="M20 703v-176l292 -154l-292 -154v-175l479 256v148z" />
    <glyph glyph-name="question" unicode="?" horiz-adv-x="663" 
d="M366 740l-122.001 -0.00195312l-197 -178h299c15.333 0 27.333 -4.66699 36 -14s13 -21.666 13 -36.999c0 -12.667 -3.33301 -23.667 -10 -33c-3.33301 -5.33301 -9.66602 -11.666 -18.999 -18.999l-306 -269h282l177 153c18 16 33.333 36.333 46 61
c18 34.667 27 71 27 109c0 65.333 -22.833 119.5 -68.5 162.5s-98.167 64.5 -157.5 64.5zM197.999 177.998c29.333 0 54.166 -10.167 74.499 -30.5s30.5 -45.166 30.5 -74.499s-10.167 -54.166 -30.5 -74.499s-45.166 -30.5 -74.499 -30.5s-54.166 10.167 -74.499 30.5
s-30.5 45.166 -30.5 74.499s10.167 54.166 30.5 74.499s45.166 30.5 74.499 30.5z" />
    <glyph glyph-name="at" unicode="@" horiz-adv-x="758" 
d="M552 182l34 -48.998c-58.667 -50.667 -126 -76 -202 -76c-88.667 0 -164.167 31.5 -226.5 94.5s-93.5 138.833 -93.5 227.5c0 90.667 31.5 166.167 94.5 226.5s138.167 90.5 225.5 90.5c76 0 138 -20.333 186 -61c53.333 -45.333 80 -110 80 -194
c0 -59.333 -16 -108.5 -48 -147.5s-69 -58.5 -111 -58.5h-119c-46.667 0 -86 12.333 -118 37c-34.667 27.333 -52 63.666 -52 108.999c0 44 16.667 79.667 50 107s72 41 116 41h104v-176h-87v101c-24 0 -45.167 -6.33301 -63.5 -19s-27.5 -30.334 -27.5 -53.001
c0 -50.667 29.667 -76 89 -76h108c28 0 51.333 14.333 70 43c16.667 25.333 25 53 25 83c0 50.667 -14 94.334 -42 131.001c-37.333 48.667 -93.333 73 -168 73c-62 0 -118 -24 -168 -72c-53.333 -50.667 -80 -112.334 -80 -185.001c0 -77.333 27.333 -141.333 82 -192
c50 -46.667 108 -70 174 -70c58.667 0 114.667 21.667 168 65z" />
    <glyph glyph-name="A" unicode="A" horiz-adv-x="822" 
d="M559 740l-548 -496v-261l548 494v-196h-155l-198 -181h353v-100h197v740h-197z" />
    <glyph glyph-name="B" unicode="B" horiz-adv-x="761" 
d="M464 459l-172 -0.000976562v-178h172c15.333 0 27.333 -4.66699 36 -14s13 -21.666 13 -36.999c0 -14.667 -4.33301 -27 -13 -37s-20.667 -15 -36 -15h-172v-178h209c58.667 0 108.167 21.167 148.5 63.5s60.5 97.833 60.5 166.5c0 32 -8.16699 61.167 -24.5 87.5
s-36.833 43.166 -61.5 50.499c26 14 46.833 33.167 62.5 57.5s23.5 52.833 23.5 85.5c0 68 -19.833 123.167 -59.5 165.5s-89.5 63.5 -149.5 63.5h-253l-197 -178v-562h197v562h216c15.333 0 27.333 -4.66699 36 -14s13 -21.666 13 -36.999c0 -14.667 -4.33301 -27 -13 -37
s-20.667 -15 -36 -15z" />
    <glyph glyph-name="C" unicode="C" horiz-adv-x="648" 
d="M527 0l-55 0.000976562c-118 0 -216.833 35.5 -296.5 106.5s-119.5 158.833 -119.5 263.5c0 104 40 191.667 120 263s178.667 107 296 107h252l-197 -178h-41c-66 0 -121.333 -18.333 -166 -55s-67 -82.334 -67 -137.001c0 -54 22.5 -99.5 67.5 -136.5
s100.167 -55.5 165.5 -55.5h41v-178z" />
    <glyph glyph-name="D" unicode="D" horiz-adv-x="689" 
d="M45 562v-562h197v562c52.667 0 98.5 -19.167 137.5 -57.5s58.5 -83.5 58.5 -135.5c0 -46.667 -19 -91 -57 -133c-35.333 -38.667 -67 -58 -95 -58v-178c88.667 0 169 37 241 111s108 160 108 258c0 98.667 -37.167 185.167 -111.5 259.5s-160.833 111.5 -259.5 111.5h-22
z" />
    <glyph glyph-name="E" unicode="E" horiz-adv-x="685" 
d="M55 0v459v103l197 178h508l-197 -178h-311v-103h311v-178h-311v-103h311v-178h-508z" />
    <glyph glyph-name="F" unicode="F" horiz-adv-x="683" 
d="M53 0v459v103l197 178h310h198l-197 -178h-311v-103h311v-178h-311v-281h-197z" />
    <glyph glyph-name="G" unicode="G" horiz-adv-x="743" 
d="M433 562c-52.667 0 -98.5 -19.168 -137.5 -57.501s-58.5 -83.5 -58.5 -135.5c0 -50.667 19.833 -95.167 59.5 -133.5s85.167 -57.5 136.5 -57.5v281h197v-459h-219c-98.667 0 -185.167 36.833 -259.5 110.5s-111.5 159.834 -111.5 258.501s37.167 185.167 111.5 259.5
s160.833 111.5 259.5 111.5h416l-197 -178h-197z" />
    <glyph glyph-name="H" unicode="H" horiz-adv-x="747" 
d="M250 459v299l-197 -178v-580h197v281h250v-281h197v740h-197v-281h-250z" />
    <glyph glyph-name="I" unicode="I" 
d="M68 580v-580h197v758z" />
    <glyph glyph-name="J" unicode="J" 
d="M265 758l-197 -178v-631c0 -15.333 -4.5 -27.833 -13.5 -37.5s-21.167 -14.5 -36.5 -14.5h-51v-178h89c58.667 0 108.167 21.167 148.5 63.5s60.5 97.833 60.5 166.5v809z" />
    <glyph glyph-name="K" unicode="K" horiz-adv-x="755" 
d="M248 437v319l-197 -178v-317v-261h197v177l89 81l307 -275v256l-163 149l369 352h-270z" />
    <glyph glyph-name="L" unicode="L" horiz-adv-x="508" 
d="M478 178v-178h-424v178v384l197 178v-562h227z" />
    <glyph glyph-name="M" unicode="M" horiz-adv-x="960" 
d="M33 246v-261l328 296v-297l333 297v-281h207v759l-301 -264v263z" />
    <glyph glyph-name="N" unicode="N" horiz-adv-x="824" 
d="M763 740v-753l-510 459v-446h-197v588l169 152l341 -310v310h197z" />
    <glyph glyph-name="O" unicode="O" horiz-adv-x="803" 
d="M399 750c-102.667 0 -186.666 -33.001 -251.999 -99.001c-68.667 -69.333 -103 -163 -103 -281s34.333 -211.667 103 -281c65.333 -66 149.333 -99 252 -99c103.333 0 187.666 33 252.999 99c69.333 70 104 163.667 104 281c0 118.667 -34 212.334 -102 281.001
c-65.333 66 -150.333 99 -255 99zM559.001 369.999c0 -60 -12.001 -107.332 -36.001 -141.999c-27.333 -40 -68.666 -60 -123.999 -60c-54 0 -94.667 20 -122 60c-24 35.333 -36 82.666 -36 141.999c0 60 11.667 107.333 35 142c27.333 40 68.333 60 123 60
c54 0 95 -20.333 123 -61c24.667 -36 37 -83 37 -141z" />
    <glyph glyph-name="P" unicode="P" horiz-adv-x="661" 
d="M619 459c0 86.667 -31.667 157 -95 211c-54.667 46.667 -116.334 70 -185.001 70h-89l-197 -178v-562h197v562h88c27.333 0 51.333 -9.66699 72 -29s31 -44 31 -74c0 -30.667 -10.167 -55.5 -30.5 -74.5s-44.5 -28.5 -72.5 -28.5h-42v-178h42
c68.667 0 130.334 23 185.001 69c64 54 96 124.667 96 212z" />
    <glyph glyph-name="Q" unicode="Q" horiz-adv-x="803" 
d="M559 370c0 -35.333 -4.16699 -66.665 -12.5 -93.998s-22.166 -50.333 -41.499 -69h199c18 19.333 31.167 43.166 39.5 71.499s12.5 58.833 12.5 91.5c0 118.667 -34 212.334 -102 281.001c-65.333 66 -150.333 99 -255 99s-189.334 -33 -254.001 -99
c-67.333 -68.667 -101 -162.334 -101 -281.001c0 -118 34.333 -211.667 103 -281c65.333 -66 149.333 -99 252 -99h160l197 178h-357c-54 0 -94.667 20 -122 60c-24 35.333 -36 82.666 -36 141.999c0 60 11.667 107.333 35 142c27.333 40 68.333 60 123 60
c54 0 95 -20.333 123 -61c24.667 -36 37 -83 37 -141z" />
    <glyph glyph-name="R" unicode="R" horiz-adv-x="686" 
d="M50 0h197v562h88c40.667 0 68.667 -9.33301 84 -28c12.667 -15.333 19 -40.333 19 -75c0 -30 -10.167 -54.5 -30.5 -73.5s-44.5 -28.5 -72.5 -28.5h-77l389 -369v260l-101 88c29.333 25.333 48.666 44 57.999 56c20.667 26.667 31 56.667 31 90
c0 92 -25.333 158.667 -76 200c-47.333 38.667 -121.666 58 -222.999 58h-89l-197 -178v-562z" />
    <glyph glyph-name="S" unicode="S" horiz-adv-x="621" 
d="M30 0v178.001h257c12.667 0 23.834 4.83301 33.501 14.5s14.5 21.167 14.5 34.5c0 36 -24.667 54 -74 54c-65.333 0 -119.5 23.167 -162.5 69.5s-64.5 99.5 -64.5 159.5s23.667 113.333 71 160s100 70 158 70h445l-197 -178h-229c-12.667 0 -24.167 -4.83301 -34.5 -14.5
s-15.5 -21.167 -15.5 -34.5c0 -36 25.333 -54 76 -54c60 0 111.667 -20.667 155 -62c46.667 -44 70 -99.667 70 -167c0 -66.667 -23.667 -122.334 -71 -167.001c-44.667 -42 -97.334 -63 -158.001 -63h-274z" />
    <glyph glyph-name="T" unicode="T" horiz-adv-x="549" 
d="M208 562v-562h197v562h41l197 178h-445l-197 -178h207z" />
    <glyph glyph-name="U" unicode="U" horiz-adv-x="653" 
d="M604 269v471.001h-197v-471c0 -37.333 -6.83301 -63.833 -20.5 -79.5s-32.834 -23.5 -57.501 -23.5c-24 0 -42.333 7 -55 21c-15.333 17.333 -23 44.666 -23 81.999v488l-197 -178v-310c0 -106.667 29.667 -183 89 -229c44.667 -34.667 106.667 -52 186 -52
c78.667 0 140.334 17 185.001 51c60 46 90 122.667 90 230z" />
    <glyph glyph-name="V" unicode="V" horiz-adv-x="761" 
d="M256 748l-207 -178v-581l848 759h-327l-314 -281v281z" />
    <glyph glyph-name="W" unicode="W" horiz-adv-x="1086" 
d="M277 748l-207 -178v-581l301 264v-263l840 758h-288l-313 -281v297l-333 -297v281z" />
    <glyph glyph-name="X" unicode="X" horiz-adv-x="822" 
d="M399 300l355 -318v256l-211 192l346 310h-294l-198 -178l-212 195l-139 -125l204 -201l-208 -190v-263z" />
    <glyph glyph-name="Y" unicode="Y" horiz-adv-x="756" 
d="M248 437v319l-197 -178v-317v-261h197v177l613 563h-281z" />
    <glyph glyph-name="Z" unicode="Z" horiz-adv-x="785" 
d="M41 245v-245h649v177h-435l627 563h-626l-197 -178h333z" />
    <glyph glyph-name="bracketleft" unicode="[" horiz-adv-x="379" 
d="M219 80h93v-160h-260v886h260v-160h-93v-566z" />
    <glyph glyph-name="backslash" unicode="\" horiz-adv-x="394" 
d="M204 -80h168l-173 886h-168z" />
    <glyph glyph-name="bracketright" unicode="]" horiz-adv-x="368" 
d="M145 80h-93v-160h260v886h-260v-160h93v-566z" />
    <glyph glyph-name="asciicircum" unicode="^" horiz-adv-x="503" 
d="M197 738h102l148 -296h-128l-69 179l-72 -179h-129z" />
    <glyph glyph-name="underscore" unicode="_" horiz-adv-x="576" 
d="M0 -33h576v-105h-576v105z" />
    <glyph glyph-name="grave" unicode="`" horiz-adv-x="345" 
d="M52 944l88 -154h144l-59 154h-173z" />
    <glyph glyph-name="a" unicode="a" horiz-adv-x="822" 
d="M559 740l-548 -496v-261l548 494v-196h-155l-198 -181h353v-100h197v740h-197z" />
    <glyph glyph-name="b" unicode="b" horiz-adv-x="761" 
d="M464 459l-172 -0.000976562v-178h172c15.333 0 27.333 -4.66699 36 -14s13 -21.666 13 -36.999c0 -14.667 -4.33301 -27 -13 -37s-20.667 -15 -36 -15h-172v-178h209c58.667 0 108.167 21.167 148.5 63.5s60.5 97.833 60.5 166.5c0 32 -8.16699 61.167 -24.5 87.5
s-36.833 43.166 -61.5 50.499c26 14 46.833 33.167 62.5 57.5s23.5 52.833 23.5 85.5c0 68 -19.833 123.167 -59.5 165.5s-89.5 63.5 -149.5 63.5h-253l-197 -178v-562h197v562h216c15.333 0 27.333 -4.66699 36 -14s13 -21.666 13 -36.999c0 -14.667 -4.33301 -27 -13 -37
s-20.667 -15 -36 -15z" />
    <glyph glyph-name="c" unicode="c" horiz-adv-x="648" 
d="M527 0l-55 0.000976562c-118 0 -216.833 35.5 -296.5 106.5s-119.5 158.833 -119.5 263.5c0 104 40 191.667 120 263s178.667 107 296 107h252l-197 -178h-41c-66 0 -121.333 -18.333 -166 -55s-67 -82.334 -67 -137.001c0 -54 22.5 -99.5 67.5 -136.5
s100.167 -55.5 165.5 -55.5h41v-178z" />
    <glyph glyph-name="d" unicode="d" horiz-adv-x="689" 
d="M45 562v-562h197v562c52.667 0 98.5 -19.167 137.5 -57.5s58.5 -83.5 58.5 -135.5c0 -46.667 -19 -91 -57 -133c-35.333 -38.667 -67 -58 -95 -58v-178c88.667 0 169 37 241 111s108 160 108 258c0 98.667 -37.167 185.167 -111.5 259.5s-160.833 111.5 -259.5 111.5h-22
z" />
    <glyph glyph-name="e" unicode="e" horiz-adv-x="685" 
d="M55 0v459v103l197 178h508l-197 -178h-311v-103h311v-178h-311v-103h311v-178h-508z" />
    <glyph glyph-name="f" unicode="f" horiz-adv-x="683" 
d="M53 0v459v103l197 178h508l-197 -178h-311v-103h311v-178h-311v-281h-197z" />
    <glyph glyph-name="g" unicode="g" horiz-adv-x="743" 
d="M433 562c-52.667 0 -98.5 -19.168 -137.5 -57.501s-58.5 -83.5 -58.5 -135.5c0 -50.667 19.833 -95.167 59.5 -133.5s85.167 -57.5 136.5 -57.5v281h197v-459h-219c-98.667 0 -185.167 36.833 -259.5 110.5s-111.5 159.834 -111.5 258.501s37.167 185.167 111.5 259.5
s160.833 111.5 259.5 111.5h416l-197 -178h-197z" />
    <glyph glyph-name="h" unicode="h" horiz-adv-x="747" 
d="M250 459v299l-197 -178v-580h197v281h250v-281h197v740h-197v-281h-250z" />
    <glyph glyph-name="i" unicode="i" 
d="M68 580v-580h197v758z" />
    <glyph glyph-name="j" unicode="j" 
d="M265 758l-197 -178v-631c0 -15.333 -4.5 -27.833 -13.5 -37.5s-21.167 -14.5 -36.5 -14.5h-51v-178h89c58.667 0 108.167 21.167 148.5 63.5s60.5 97.833 60.5 166.5v809z" />
    <glyph glyph-name="k" unicode="k" horiz-adv-x="755" 
d="M248 437v319l-197 -178v-317v-261h197v177l89 81l307 -275v256l-163 149l369 352h-270z" />
    <glyph glyph-name="l" unicode="l" horiz-adv-x="508" 
d="M478 178v-178h-424v178v384l197 178v-562h227z" />
    <glyph glyph-name="m" unicode="m" horiz-adv-x="960" 
d="M33 246v-261l328 296v-297l333 297v-281h207v759l-301 -264v263z" />
    <glyph glyph-name="n" unicode="n" horiz-adv-x="824" 
d="M763 740v-479v-274l-510 459v-446h-197v588l169 152l341 -310v310h197z" />
    <glyph glyph-name="o" unicode="o" horiz-adv-x="803" 
d="M399 750c-102.667 0 -186.666 -33.001 -251.999 -99.001c-68.667 -69.333 -103 -163 -103 -281s34.333 -211.667 103 -281c65.333 -66 149.333 -99 252 -99c103.333 0 187.666 33 252.999 99c69.333 70 104 163.667 104 281c0 118.667 -34 212.334 -102 281.001
c-65.333 66 -150.333 99 -255 99zM559.001 369.999c0 -60 -12.001 -107.332 -36.001 -141.999c-27.333 -40 -68.666 -60 -123.999 -60c-54 0 -94.667 20 -122 60c-24 35.333 -36 82.666 -36 141.999c0 60 11.667 107.333 35 142c27.333 40 68.333 60 123 60
c54 0 95 -20.333 123 -61c24.667 -36 37 -83 37 -141z" />
    <glyph glyph-name="p" unicode="p" horiz-adv-x="661" 
d="M619 459c0 86.667 -31.667 157 -95 211c-54.667 46.667 -116.334 70 -185.001 70h-89l-197 -178v-562h197v562h88c27.333 0 51.333 -9.66699 72 -29s31 -44 31 -74c0 -30.667 -10.167 -55.5 -30.5 -74.5s-44.5 -28.5 -72.5 -28.5h-42v-178h42
c68.667 0 130.334 23 185.001 69c64 54 96 124.667 96 212z" />
    <glyph glyph-name="q" unicode="q" horiz-adv-x="803" 
d="M559 370c0 -35.333 -4.16699 -66.665 -12.5 -93.998s-22.166 -50.333 -41.499 -69h199c18 19.333 31.167 43.166 39.5 71.499s12.5 58.833 12.5 91.5c0 118.667 -34 212.334 -102 281.001c-65.333 66 -150.333 99 -255 99s-189.334 -33 -254.001 -99
c-67.333 -68.667 -101 -162.334 -101 -281.001c0 -118 34.333 -211.667 103 -281c65.333 -66 149.333 -99 252 -99h160l197 178h-357c-54 0 -94.667 20 -122 60c-24 35.333 -36 82.666 -36 141.999c0 60 11.667 107.333 35 142c27.333 40 68.333 60 123 60
c54 0 95 -20.333 123 -61c24.667 -36 37 -83 37 -141z" />
    <glyph glyph-name="r" unicode="r" horiz-adv-x="686" 
d="M50 0h197v562h88c40.667 0 68.667 -9.33301 84 -28c12.667 -15.333 19 -40.333 19 -75c0 -30 -10.167 -54.5 -30.5 -73.5s-44.5 -28.5 -72.5 -28.5h-77l389 -369v260l-101 88c29.333 25.333 48.666 44 57.999 56c20.667 26.667 31 56.667 31 90
c0 92 -25.333 158.667 -76 200c-47.333 38.667 -121.666 58 -222.999 58h-89l-197 -178v-562z" />
    <glyph glyph-name="s" unicode="s" horiz-adv-x="621" 
d="M30 0v178.001h257c12.667 0 23.834 4.83301 33.501 14.5s14.5 21.167 14.5 34.5c0 36 -24.667 54 -74 54c-65.333 0 -119.5 23.167 -162.5 69.5s-64.5 99.5 -64.5 159.5s23.667 113.333 71 160s100 70 158 70h445l-197 -178h-229c-12.667 0 -24.167 -4.83301 -34.5 -14.5
s-15.5 -21.167 -15.5 -34.5c0 -36 25.333 -54 76 -54c60 0 111.667 -20.667 155 -62c46.667 -44 70 -99.667 70 -167c0 -66.667 -23.667 -122.334 -71 -167.001c-44.667 -42 -97.334 -63 -158.001 -63h-274z" />
    <glyph glyph-name="t" unicode="t" horiz-adv-x="549" 
d="M208 562v-562h197v562h41l197 178h-445l-197 -178h207z" />
    <glyph glyph-name="u" unicode="u" horiz-adv-x="653" 
d="M604 269v471.001h-197v-471c0 -37.333 -6.83301 -63.833 -20.5 -79.5s-32.834 -23.5 -57.501 -23.5c-24 0 -42.333 7 -55 21c-15.333 17.333 -23 44.666 -23 81.999v488l-197 -178v-310c0 -106.667 29.667 -183 89 -229c44.667 -34.667 106.667 -52 186 -52
c78.667 0 140.334 17 185.001 51c60 46 90 122.667 90 230z" />
    <glyph glyph-name="v" unicode="v" horiz-adv-x="761" 
d="M256 748l-207 -178v-581l848 759h-327l-314 -281v281z" />
    <glyph glyph-name="w" unicode="w" horiz-adv-x="1070" 
d="M261 748l-207 -178v-581l301 264v-263l840 758h-288l-313 -281v297l-333 -297v281z" />
    <glyph glyph-name="x" unicode="x" horiz-adv-x="809" 
d="M386 300l355 -318v256l-211 192l346 310h-294l-198 -178l-212 195l-139 -125l204 -201l-208 -190v-263z" />
    <glyph glyph-name="y" unicode="y" horiz-adv-x="756" 
d="M248 437v319l-197 -178v-317v-261h197v177l613 563h-281z" />
    <glyph glyph-name="z" unicode="z" horiz-adv-x="785" 
d="M41 245v-245h649v177h-435l627 563h-626l-197 -178h333z" />
    <glyph glyph-name="braceleft" unicode="{" horiz-adv-x="434" 
d="M198 363c21.333 -11.333 36.999 -25.667 46.999 -43c7.33301 -13.333 12.5 -28.166 15.5 -44.499s4.5 -33.5 4.5 -51.5l1 -88c0 -14.667 2 -26 6 -34s10.833 -13.333 20.5 -16s19.834 -4.33398 30.501 -5.00098s20.667 -1 30 -1v-160h-100
c-52 0 -89.333 13.167 -112 39.5s-34 66.166 -34 119.499v123c0 23.333 -4.66699 42.5 -14 57.5s-24.666 24.5 -45.999 28.5v150c21.333 4 36.666 13.5 45.999 28.5s14 34.167 14 57.5v123c0 52 11.5 91.5 34.5 118.5s60.167 40.5 111.5 40.5h100v-160h-24.5
c-9 0 -19.5 -1.66699 -31.5 -5s-20.167 -9.16602 -24.5 -17.499s-6.5 -19.5 -6.5 -33.5l-1 -88c0 -34.667 -4 -61.667 -12 -81c-10 -24.667 -28.333 -44 -55 -58z" />
    <glyph glyph-name="bar" unicode="|" horiz-adv-x="366" 
d="M83 737h178v-923h-178v923z" />
    <glyph glyph-name="braceright" unicode="}" horiz-adv-x="434" 
d="M202 363c-21.333 -11.333 -36.999 -25.667 -46.999 -43c-7.33301 -13.333 -12.5 -28.166 -15.5 -44.499s-4.5 -33.5 -4.5 -51.5l-1 -88c0 -14.667 -2 -26 -6 -34s-10.833 -13.333 -20.5 -16s-19.834 -4.33398 -30.501 -5.00098s-20.667 -1 -30 -1v-160h100
c52 0 89.333 13.167 112 39.5s34 66.166 34 119.499v123c0 23.333 4.66699 42.5 14 57.5s24.666 24.5 45.999 28.5v150c-21.333 4 -36.666 13.5 -45.999 28.5s-14 34.167 -14 57.5v123c0 52 -11 91 -33 117c-24 28 -61.667 42 -113 42h-100v-160h24
c9.33301 0 20 -1.66699 32 -5s20.167 -9.16602 24.5 -17.499s6.5 -19.5 6.5 -33.5l1 -88c0 -34.667 4.5 -63 13.5 -85s26.833 -40 53.5 -54z" />
    <glyph glyph-name="asciitilde" unicode="~" horiz-adv-x="608" 
d="M134 292l-86 73.001c18.667 46.667 39 82 61 106c30 32.667 66 49 108 49c17.333 0 38 -4.33301 62 -13c7.33301 -2.66699 27.666 -11 60.999 -25c16.667 -6.66699 32 -12.5 46 -17.5s28 -7.5 42 -7.5c15.333 0 29.666 7.33301 42.999 22c8 9.33301 17 23.666 27 42.999
l86 -71c-19.333 -46.667 -39.666 -81.667 -60.999 -105c-30 -32 -66 -48 -108 -48c-27.333 0 -54 5.66699 -80 17l-47 21c-12.667 4.66699 -25 9.66699 -37 15c-15.333 5.33301 -28.666 8 -39.999 8c-17.333 0 -33 -7.33301 -47 -22
c-9.33301 -9.33301 -19.333 -24.333 -30 -45z" />
    <glyph glyph-name="nonbreakingspace" unicode="&#xa0;" horiz-adv-x="500" 
 />
    <glyph glyph-name="exclamdown" unicode="&#xa1;" horiz-adv-x="772" 
d="M41 -17l846 757h-294l-198 -178l-212 195l-139 -125l204 -201l-207 -190v-258zM402 635l-119 105h238z" />
    <glyph glyph-name="cent" unicode="&#xa2;" horiz-adv-x="772" 
d="M41 -17l846 757h-294l-198 -178l-212 195l-139 -125l204 -201l-207 -190v-258zM402 635l-119 105h238z" />
    <glyph glyph-name="sterling" unicode="&#xa3;" horiz-adv-x="566" 
d="M558 176v-175.999h-506l48 512c8 85.333 32 144.166 72 176.499s103.333 48.5 190 48.5l81 1h198l-197 -178h-61c-36.667 0 -60.667 -9 -72 -27c-8.66699 -14 -13 -40.667 -13 -80h149v-177h-166l-7 -100h284z" />
    <glyph glyph-name="currency" unicode="&#xa4;" horiz-adv-x="654" 
d="M50 510l131.001 131l68 -67c8.66699 3.33301 16 5.66602 22 6.99902c20 5.33301 37.333 8 52 8c17.333 0 34.666 -2.33301 51.999 -7c6 -1.33301 13.333 -4 22 -8l68 67l131 -131l-66 -68c3.33301 -9.33301 5.66602 -17 6.99902 -23c4.66699 -18.667 7 -35.667 7 -51
c0 -14 -2.33301 -30.667 -7 -50c-1.33301 -6 -3.66602 -14 -6.99902 -24l66 -68l-131 -131l-68 67c-25.333 -10 -50 -15 -74 -15c-12 0 -24.167 1.33301 -36.5 4s-24.833 6.33398 -37.5 11.001l-68 -67l-131 131l67 68c-3.33301 9.33301 -5.66602 17 -6.99902 23
c-4.66699 18.667 -7 35.667 -7 51c0 16.667 2.33301 34 7 52c1.33301 6 3.66602 13.333 6.99902 22zM240.001 368c0 -22.667 8.16699 -42.167 24.5 -58.5s35.833 -24.5 58.5 -24.5s42.167 8.16699 58.5 24.5s24.5 35.833 24.5 58.5s-8.16699 42.167 -24.5 58.5
s-35.833 24.5 -58.5 24.5s-42.167 -8.16699 -58.5 -24.5s-24.5 -35.833 -24.5 -58.5z" />
    <glyph glyph-name="yen" unicode="&#xa5;" horiz-adv-x="680" 
d="M168 453l-125 284h202l99 -284l100 284h202l-127 -284h91v-177h-165v-277h-204v277h-166v177h93z" />
    <glyph glyph-name="brokenbar" unicode="&#xa6;" horiz-adv-x="313" 
d="M51 737h178v-392h-178v392zM51 168h178v-354h-178v354z" />
    <glyph glyph-name="section" unicode="&#xa7;" horiz-adv-x="552" 
d="M84 97l160 0.000976562c4.66699 0 10.5 0.166992 17.5 0.5s13.667 4.33301 20 12s9.5 15.834 9.5 24.501c0 10 -5 18.667 -15 26c-5.33301 4 -22.666 11.333 -51.999 22c-57.333 21.333 -97.333 41 -120 59c-36.667 29.333 -55 69 -55 119c0 47.333 20 88.666 60 123.999
c-10 17.333 -17.333 31.666 -22 42.999c-8.66699 22 -13 44.667 -13 68c0 66 24.333 119 73 159c42 34.667 89 52 141 52l310 1l-197 -178h-89c-8 0 -15.333 -3.66699 -22 -11s-10 -15.666 -10 -24.999c0 -18.667 22.333 -35.334 67 -50.001
c31.333 -10.667 52.333 -19 63 -25c33.333 -15.333 60.333 -35.333 81 -60s31 -51.667 31 -81c0 -56 -20 -101 -60 -135c23.333 -35.333 35 -72.333 35 -111c0 -65.333 -22.667 -117.333 -68 -156c-42.667 -36.667 -97.334 -55 -164.001 -55h-181v177zM278 409.001
c-9.33301 0 -17.333 -3.33301 -24 -10s-10 -14.667 -10 -24s3.16699 -17.5 9.5 -24.5s14.5 -10.5 24.5 -10.5c9.33301 0 17.333 3.33301 24 10s10 15 10 25c0 9.33301 -3.33301 17.333 -10 24s-14.667 10 -24 10z" />
    <glyph glyph-name="dieresis" unicode="&#xa8;" horiz-adv-x="683" 
d="M54 0v562l197 178h508l-197 -178h-311v-103h311v-178h-311v-103h311v-178h-508zM113 968h175v-173h-175v173zM390 968h172v-173h-172v173z" />
    <glyph glyph-name="copyright" unicode="&#xa9;" horiz-adv-x="854" 
d="M423 754c105.333 0 195.667 -37.667 271 -113s113 -166 113 -272s-37.5 -196.833 -112.5 -272.5s-165.5 -113.5 -271.5 -113.5c-106.667 0 -197.667 37.667 -273 113s-113 166.333 -113 273c0 106 37.667 196.667 113 272s166.333 113 273 113zM423.001 682
c-86 0 -158.999 -30.667 -218.999 -92s-90 -135 -90 -221s30.167 -159.833 90.5 -221.5s133.166 -92.5 218.499 -92.5s157.833 30.833 217.5 92.5s89.5 135.5 89.5 221.5c0 85.333 -29.833 158.833 -89.5 220.5s-132.167 92.5 -217.5 92.5zM503.002 267l0.00292969 -105.001
h-62c-62.667 0 -116.334 18 -161.001 54c-48 38.667 -72 89 -72 151c0 64.667 24 116.334 72 155.001c44 35.333 99.333 53 166 53h167l-115 -104h-43c-32.667 0 -60.334 -9.16699 -83.001 -27.5s-34 -43.5 -34 -75.5s12.667 -57.333 38 -76
c23.333 -16.667 51.666 -25 84.999 -25h42z" />
    <glyph glyph-name="ordfeminine" unicode="&#xaa;" horiz-adv-x="618" 
d="M575 461l-0.000976562 -177.999h-344c12.667 -26.667 38.334 -50 77.001 -70c45.333 -23.333 98 -35 158 -35h109v-178h-123c-118.667 0 -218 35.667 -298 107s-120 158.666 -120 261.999c0 106.667 32.167 195.167 96.5 265.5s146.833 105.5 247.5 105.5l197 -178h-109
c-62.667 0 -114.5 -9.66699 -155.5 -29s-67.5 -43.333 -79.5 -72h344z" />
    <glyph glyph-name="guillemotleft" unicode="&#xab;" horiz-adv-x="705" 
d="M405 578l-145 -229l145 -224h-209l-145 224l145 229h209zM657 578l-145 -229l145 -224h-211l-144 224l144 229h211z" />
    <glyph glyph-name="logicalnot" unicode="&#xac;" horiz-adv-x="548" 
d="M340 0v169h-307v155h479v-324h-172z" />
    <glyph glyph-name="minus" unicode="&#xad;" horiz-adv-x="436" 
d="M436 417v-173h-436v173h436z" />
    <glyph glyph-name="registered" unicode="&#xae;" horiz-adv-x="854" 
d="M420 754c105.333 0 195.667 -37.667 271 -113s113 -166 113 -272s-37.5 -196.833 -112.5 -272.5s-165.5 -113.5 -271.5 -113.5c-106.667 0 -197.667 37.667 -273 113s-113 166.333 -113 273c0 106 37.667 196.667 113 272s166.333 113 273 113zM420.001 682
c-86 0 -158.999 -30.667 -218.999 -92s-90 -135 -90 -221s30.167 -159.833 90.5 -221.5s133.166 -92.5 218.499 -92.5s157.833 30.833 217.5 92.5s89.5 135.5 89.5 221.5c0 85.333 -29.833 158.833 -89.5 220.5s-132.167 92.5 -217.5 92.5zM252.002 161l110.001 0.000976562
v313h49c23.333 0 38.666 -4.5 45.999 -13.5s11 -23.5 11 -43.5c0 -17.333 -5.5 -31.166 -16.5 -41.499s-24.5 -15.5 -40.5 -15.5h-43l217 -206v145l-57 49c18 15.333 29 25.666 33 30.999c11.333 14.667 17 31.667 17 51c0 51.333 -13.833 88.166 -41.5 110.499
s-69.5 33.5 -125.5 33.5h-49l-110 -100v-313z" />
    <glyph glyph-name="macron" unicode="&#xaf;" horiz-adv-x="490" 
d="M346 0v459h-197v-459h197zM212 740h-197v-178h197v178zM478 740h-197v-178h197v178z" />
    <glyph glyph-name="degree" unicode="&#xb0;" horiz-adv-x="427" 
d="M36 569c0 46 16.833 85.833 50.5 119.5s73.5 50.5 119.5 50.5s85.667 -16.667 119 -50s50 -73.333 50 -120c0 -46 -16.667 -85.667 -50 -119s-73 -50 -119 -50c-45.333 0 -85 16.667 -119 50s-51 73 -51 119zM137 569c0 -18 6.83301 -33.833 20.5 -47.5
s29.834 -20.5 48.501 -20.5c18 0 33.833 6.83301 47.5 20.5s20.5 29.5 20.5 47.5c0 18.667 -6.83301 34.834 -20.5 48.501s-29.5 20.5 -47.5 20.5c-18.667 0 -34.834 -6.83301 -48.501 -20.5s-20.5 -29.834 -20.5 -48.501z" />
    <glyph glyph-name="plusminus" unicode="&#xb1;" horiz-adv-x="680" 
d="M74 552h153v161h191v-161h153v-175h-153v-161h-191v161h-153v175zM74 176h497v-176h-497v176z" />
    <glyph glyph-name="twosuperior" unicode="&#xb2;" 
d="M68 580v-580h197v758z" />
    <glyph glyph-name="threesuperior" unicode="&#xb3;" 
d="M68 580v-580h197v758z" />
    <glyph glyph-name="acute" unicode="&#xb4;" horiz-adv-x="359" 
d="M292 944l-88 -154h-144l59 154h173z" />
    <glyph glyph-name="mu" unicode="&#xb5;" horiz-adv-x="697" 
d="M295 0c-14.667 0 -26 2.00098 -34 6.00098v-196h-203v742h203v-283c0 -36.667 5.16699 -61.334 15.5 -74.001s33.5 -19 69.5 -19h90v269l203 176v-621h-344z" />
    <glyph glyph-name="paragraph" unicode="&#xb6;" horiz-adv-x="663" 
d="M266 -80l-0.000976562 488h-12c-61.333 0 -112.166 17.667 -152.499 53s-60.5 83 -60.5 143c0 72.667 28 126 84 160c46 28 107.667 42 185 42h424l-116 -139h-38v-747h-117v747h-79v-747h-118z" />
    <glyph glyph-name="periodcentered" unicode="&#xb7;" horiz-adv-x="266" 
d="M217 461v-173h-173v173h173z" />
    <glyph glyph-name="periodcentered" unicode="&#x2219;" horiz-adv-x="266" 
d="M217 461v-173h-173v173h173z" />
    <glyph glyph-name="cedilla" unicode="&#xb8;" horiz-adv-x="683" 
d="M54 0v562l197 178h508l-197 -178h-311v-103h311v-178h-311v-103h311v-178h-508zM113 968h175v-173h-175v173zM390 968h172v-173h-172v173z" />
    <glyph glyph-name="onesuperior" unicode="&#xb9;" horiz-adv-x="1262" 
d="M1215 382v-73h-352v73h352zM1200 591c0 -45.333 -15 -82.668 -45 -112.001s-68 -44 -114 -44c-44.667 0 -83 14.333 -115 43s-48 65.334 -48 110.001c0 45.333 15.333 82.333 46 111s69 43 115 43c44.667 0 82.667 -14 114 -42s47 -64.333 47 -109zM1108 588.998
c0 23.333 -6 42.833 -18 58.5s-29 23.5 -51 23.5s-39 -8 -51 -24s-18 -35.333 -18 -58s6 -42 18 -58s29.333 -24 52 -24c21.333 0 38 7.83301 50 23.5s18 35.167 18 58.5zM562 740.998h197v-753l-510 459v-446h-197v588l169 152l341 -310v310z" />
    <glyph glyph-name="ordmasculine" unicode="&#xba;" horiz-adv-x="618" 
d="M575 461l-0.000976562 -177.999h-344c12.667 -26.667 38.334 -50 77.001 -70c45.333 -23.333 98 -35 158 -35h109v-178h-123c-118.667 0 -218 35.667 -298 107s-120 158.666 -120 261.999c0 106.667 32.167 195.167 96.5 265.5s146.833 105.5 247.5 105.5l197 -178h-109
c-62.667 0 -114.5 -9.66699 -155.5 -29s-67.5 -43.333 -79.5 -72h344z" />
    <glyph glyph-name="guillemotright" unicode="&#xbb;" horiz-adv-x="709" 
d="M405 578l-145 -229l145 -224h-209l-145 224l145 229h209zM657 578l-145 -229l145 -224h-211l-144 224l144 229h211z" />
    <glyph glyph-name="onequarter" unicode="&#xbc;" horiz-adv-x="594" 
d="M44 455h497v-174h-497v174zM292 243c29.333 0 54.166 -10.167 74.499 -30.5s30.5 -45.166 30.5 -74.499s-10.167 -54.166 -30.5 -74.499s-45.166 -30.5 -74.499 -30.5s-54.166 10.167 -74.499 30.5s-30.5 45.166 -30.5 74.499s10.167 54.166 30.5 74.499
s45.166 30.5 74.499 30.5zM292 703c29.333 0 54.166 -10.167 74.499 -30.5s30.5 -45.166 30.5 -74.499s-10.167 -54.166 -30.5 -74.499s-45.166 -30.5 -74.499 -30.5s-54.166 10.167 -74.499 30.5s-30.5 45.166 -30.5 74.499s10.167 54.166 30.5 74.499
s45.166 30.5 74.499 30.5z" />
    <glyph glyph-name="onehalf" unicode="&#xbd;" horiz-adv-x="601" 
d="M182 608l105 -112l118 111l131 -141l-118 -109l104 -112l-127 -119l-105 112l-117 -110l-131 140l118 109l-105 112z" />
    <glyph glyph-name="threequarters" unicode="&#xbe;" horiz-adv-x="802" 
d="M126 195c29.333 0 54.166 -10.167 74.499 -30.5s30.5 -45.166 30.5 -74.499s-10.167 -54.166 -30.5 -74.499s-45.166 -30.5 -74.499 -30.5s-54.166 10.167 -74.499 30.5s-30.5 45.166 -30.5 74.499s10.167 54.166 30.5 74.499s45.166 30.5 74.499 30.5zM399 195
c29.333 0 54.166 -10.167 74.499 -30.5s30.5 -45.166 30.5 -74.499s-10.167 -54.166 -30.5 -74.499s-45.166 -30.5 -74.499 -30.5s-54.166 10.167 -74.499 30.5s-30.5 45.166 -30.5 74.499s10.167 54.166 30.5 74.499s45.166 30.5 74.499 30.5zM672 195
c29.333 0 54.166 -10.167 74.499 -30.5s30.5 -45.166 30.5 -74.499s-10.167 -54.166 -30.5 -74.499s-45.166 -30.5 -74.499 -30.5s-54.166 10.167 -74.499 30.5s-30.5 45.166 -30.5 74.499s10.167 54.166 30.5 74.499s45.166 30.5 74.499 30.5z" />
    <glyph glyph-name="questiondown" unicode="&#xbf;" horiz-adv-x="490" 
d="M346 0v459h-197v-459h197zM212 740h-197v-178h197v178zM478 740h-197v-178h197v178z" />
    <glyph glyph-name="Agrave" unicode="&#xc0;" horiz-adv-x="829" 
d="M559 740l-548 -496v-261l548 494v-196h-155l-198 -181h353v-100h197v740h-197z" />
    <glyph glyph-name="Agrave" unicode="&#x410;" horiz-adv-x="829" 
d="M559 740l-548 -496v-261l548 494v-196h-155l-198 -181h353v-100h197v740h-197z" />
    <glyph glyph-name="Aacute" unicode="&#xc1;" horiz-adv-x="781" 
d="M256 562l-0.000976562 -383.999h215c15.333 0 27.333 4.66699 36 14s13 22 13 38c0 15.333 -4.33301 27.666 -13 36.999s-20.667 14 -36 14h-172v178h211c58.667 0 107.834 -20.833 147.501 -62.5s59.5 -96.5 59.5 -164.5c0 -61.333 -20.333 -115.333 -61 -162
s-89 -70 -145 -70h-452v562l197 178h594l-197 -178h-397z" />
    <glyph glyph-name="Aacute" unicode="&#x411;" horiz-adv-x="781" 
d="M256 562l-0.000976562 -383.999h215c15.333 0 27.333 4.66699 36 14s13 22 13 38c0 15.333 -4.33301 27.666 -13 36.999s-20.667 14 -36 14h-172v178h211c58.667 0 107.834 -20.833 147.501 -62.5s59.5 -96.5 59.5 -164.5c0 -61.333 -20.333 -115.333 -61 -162
s-89 -70 -145 -70h-452v562l197 178h594l-197 -178h-397z" />
    <glyph glyph-name="Acircumflex" unicode="&#xc2;" horiz-adv-x="761" 
d="M464 459l-172 -0.000976562v-178h172c15.333 0 27.333 -4.66699 36 -14s13 -21.666 13 -36.999c0 -14.667 -4.33301 -27 -13 -37s-20.667 -15 -36 -15h-172v-178h209c58.667 0 108.167 21.167 148.5 63.5s60.5 97.833 60.5 166.5c0 32 -8.16699 61.167 -24.5 87.5
s-36.833 43.166 -61.5 50.499c26 14 46.833 33.167 62.5 57.5s23.5 52.833 23.5 85.5c0 68 -19.833 123.167 -59.5 165.5s-89.5 63.5 -149.5 63.5h-253l-197 -178v-562h197v562h216c15.333 0 27.333 -4.66699 36 -14s13 -21.666 13 -36.999c0 -14.667 -4.33301 -27 -13 -37
s-20.667 -15 -36 -15z" />
    <glyph glyph-name="Acircumflex" unicode="&#x412;" horiz-adv-x="761" 
d="M464 459l-172 -0.000976562v-178h172c15.333 0 27.333 -4.66699 36 -14s13 -21.666 13 -36.999c0 -14.667 -4.33301 -27 -13 -37s-20.667 -15 -36 -15h-172v-178h209c58.667 0 108.167 21.167 148.5 63.5s60.5 97.833 60.5 166.5c0 32 -8.16699 61.167 -24.5 87.5
s-36.833 43.166 -61.5 50.499c26 14 46.833 33.167 62.5 57.5s23.5 52.833 23.5 85.5c0 68 -19.833 123.167 -59.5 165.5s-89.5 63.5 -149.5 63.5h-253l-197 -178v-562h197v562h216c15.333 0 27.333 -4.66699 36 -14s13 -21.666 13 -36.999c0 -14.667 -4.33301 -27 -13 -37
s-20.667 -15 -36 -15z" />
    <glyph glyph-name="Atilde" unicode="&#xc3;" horiz-adv-x="582" 
d="M477 562l196 178h-423l-197 -178v-562h197v562h227z" />
    <glyph glyph-name="Atilde" unicode="&#x413;" horiz-adv-x="582" 
d="M477 562l196 178h-423l-197 -178v-562h197v562h227z" />
    <glyph glyph-name="Adieresis" unicode="&#xc4;" horiz-adv-x="892" 
d="M632 740l-574 -519h288l286 256v-299h-618v-178h618h197v740h-197z" />
    <glyph glyph-name="Adieresis" unicode="&#x414;" horiz-adv-x="892" 
d="M632 740l-574 -519h288l286 256v-299h-618v-178h618h197v740h-197z" />
    <glyph glyph-name="Aring" unicode="&#xc5;" horiz-adv-x="687" 
d="M57 0v459v103l197 178h508l-197 -178h-311v-103h311v-178h-311v-103h311v-178h-508z" />
    <glyph glyph-name="Aring" unicode="&#x415;" horiz-adv-x="687" 
d="M57 0v459v103l197 178h508l-197 -178h-311v-103h311v-178h-311v-103h311v-178h-508z" />
    <glyph glyph-name="AE" unicode="&#xc6;" horiz-adv-x="1191" 
d="M455 420v302h197v-303l332 303h270l-369 -352l163 -149v-256l-307 275l-89 -81v-177h-197v178l-89 81l-307 -275v256l163 149l-250 239l138 124z" />
    <glyph glyph-name="AE" unicode="&#x416;" horiz-adv-x="1191" 
d="M455 420v302h197v-303l332 303h270l-369 -352l163 -149v-256l-307 275l-89 -81v-177h-197v178l-89 81l-307 -275v256l163 149l-250 239l138 124z" />
    <glyph glyph-name="Ccedilla" unicode="&#xc7;" horiz-adv-x="610" 
d="M57 459v-178.001h262c15.333 0 27.333 -4.66699 36 -14s13 -21.666 13 -36.999c0 -14.667 -4.33301 -27 -13 -37s-20.667 -15 -36 -15h-262v-178h300c58.667 0 108.167 21.167 148.5 63.5s60.5 97.833 60.5 166.5c0 32 -8.16699 61.167 -24.5 87.5
s-36.833 43.166 -61.5 50.499c26 14 46.833 33.167 62.5 57.5s23.5 52.833 23.5 85.5c0 68 -19.833 123.167 -59.5 165.5s-89.5 63.5 -149.5 63.5h-103l-197 -178h262c15.333 0 27.333 -4.66699 36 -14s13 -21.666 13 -36.999c0 -14.667 -4.33301 -27 -13 -37
s-20.667 -15 -36 -15h-262z" />
    <glyph glyph-name="Ccedilla" unicode="&#x417;" horiz-adv-x="610" 
d="M57 459v-178.001h262c15.333 0 27.333 -4.66699 36 -14s13 -21.666 13 -36.999c0 -14.667 -4.33301 -27 -13 -37s-20.667 -15 -36 -15h-262v-178h300c58.667 0 108.167 21.167 148.5 63.5s60.5 97.833 60.5 166.5c0 32 -8.16699 61.167 -24.5 87.5
s-36.833 43.166 -61.5 50.499c26 14 46.833 33.167 62.5 57.5s23.5 52.833 23.5 85.5c0 68 -19.833 123.167 -59.5 165.5s-89.5 63.5 -149.5 63.5h-103l-197 -178h262c15.333 0 27.333 -4.66699 36 -14s13 -21.666 13 -36.999c0 -14.667 -4.33301 -27 -13 -37
s-20.667 -15 -36 -15h-262z" />
    <glyph glyph-name="Egrave" unicode="&#xc8;" horiz-adv-x="819" 
d="M56 577v-316v-274l510 459v-446h197v740h-169l-341 -310v325z" />
    <glyph glyph-name="Egrave" unicode="&#x418;" horiz-adv-x="819" 
d="M56 577v-316v-274l510 459v-446h197v740h-169l-341 -310v325z" />
    <glyph glyph-name="Eacute" unicode="&#xc9;" horiz-adv-x="817" 
d="M54 577v-316v-274l510 459v-446h197v740h-169l-341 -310v325zM295 740h218l-218 -197v197z" />
    <glyph glyph-name="Eacute" unicode="&#x419;" horiz-adv-x="817" 
d="M54 577v-316v-274l510 459v-446h197v740h-169l-341 -310v325zM295 740h218l-218 -197v197z" />
    <glyph glyph-name="Ecircumflex" unicode="&#xca;" horiz-adv-x="760" 
d="M253 437v319l-197 -178v-317v-261h197v177l89 81l307 -275v256l-163 149l369 352h-270z" />
    <glyph glyph-name="Ecircumflex" unicode="&#x41a;" horiz-adv-x="760" 
d="M253 437v319l-197 -178v-317v-261h197v177l89 81l307 -275v256l-163 149l369 352h-270z" />
    <glyph glyph-name="Edieresis" unicode="&#xcb;" horiz-adv-x="825" 
d="M765 0v740h-197l-547 -495v-261l547 493v-477h197z" />
    <glyph glyph-name="Edieresis" unicode="&#x41b;" horiz-adv-x="825" 
d="M765 0v740h-197l-547 -495v-261l547 493v-477h197z" />
    <glyph glyph-name="Igrave" unicode="&#xcc;" horiz-adv-x="947" 
d="M22 246v-261l328 296v-297l333 297v-281h207v759l-301 -264v263z" />
    <glyph glyph-name="Igrave" unicode="&#x41c;" horiz-adv-x="947" 
d="M22 246v-261l328 296v-297l333 297v-281h207v759l-301 -264v263z" />
    <glyph glyph-name="Iacute" unicode="&#xcd;" horiz-adv-x="751" 
d="M252 459v299l-197 -178v-580h197v281h250v-281h197v740h-197v-281h-250z" />
    <glyph glyph-name="Iacute" unicode="&#x41d;" horiz-adv-x="751" 
d="M252 459v299l-197 -178v-580h197v281h250v-281h197v740h-197v-281h-250z" />
    <glyph glyph-name="Icircumflex" unicode="&#xce;" horiz-adv-x="809" 
d="M401 750c-102.667 0 -186.666 -33.001 -251.999 -99.001c-68.667 -69.333 -103 -163 -103 -281s34.333 -211.667 103 -281c65.333 -66 149.333 -99 252 -99c103.333 0 187.666 33 252.999 99c69.333 70 104 163.667 104 281c0 118.667 -34 212.334 -102 281.001
c-65.333 66 -150.333 99 -255 99zM561.001 369.999c0 -60 -12.001 -107.332 -36.001 -141.999c-27.333 -40 -68.666 -60 -123.999 -60c-54 0 -94.667 20 -122 60c-24 35.333 -36 82.666 -36 141.999c0 60 11.667 107.333 35 142c27.333 40 68.333 60 123 60
c54 0 95 -20.333 123 -61c24.667 -36 37 -83 37 -141z" />
    <glyph glyph-name="Icircumflex" unicode="&#x41e;" horiz-adv-x="809" 
d="M401 750c-102.667 0 -186.666 -33.001 -251.999 -99.001c-68.667 -69.333 -103 -163 -103 -281s34.333 -211.667 103 -281c65.333 -66 149.333 -99 252 -99c103.333 0 187.666 33 252.999 99c69.333 70 104 163.667 104 281c0 118.667 -34 212.334 -102 281.001
c-65.333 66 -150.333 99 -255 99zM561.001 369.999c0 -60 -12.001 -107.332 -36.001 -141.999c-27.333 -40 -68.666 -60 -123.999 -60c-54 0 -94.667 20 -122 60c-24 35.333 -36 82.666 -36 141.999c0 60 11.667 107.333 35 142c27.333 40 68.333 60 123 60
c54 0 95 -20.333 123 -61c24.667 -36 37 -83 37 -141z" />
    <glyph glyph-name="Idieresis" unicode="&#xcf;" horiz-adv-x="740" 
d="M248 740l-197 -178v-562h197v562h251v-562h197v740h-448z" />
    <glyph glyph-name="Idieresis" unicode="&#x41f;" horiz-adv-x="740" 
d="M248 740l-197 -178v-562h197v562h251v-562h197v740h-448z" />
    <glyph glyph-name="Eth" unicode="&#xd0;" horiz-adv-x="655" 
d="M619 459c0 86.667 -31.667 157 -95 211c-54.667 46.667 -116.334 70 -185.001 70h-89l-197 -178v-562h197v562h88c27.333 0 51.333 -9.66699 72 -29s31 -44 31 -74c0 -30.667 -10.167 -55.5 -30.5 -74.5s-44.5 -28.5 -72.5 -28.5h-42v-178h42
c68.667 0 130.334 23 185.001 69c64 54 96 124.667 96 212z" />
    <glyph glyph-name="Eth" unicode="&#x420;" horiz-adv-x="655" 
d="M619 459c0 86.667 -31.667 157 -95 211c-54.667 46.667 -116.334 70 -185.001 70h-89l-197 -178v-562h197v562h88c27.333 0 51.333 -9.66699 72 -29s31 -44 31 -74c0 -30.667 -10.167 -55.5 -30.5 -74.5s-44.5 -28.5 -72.5 -28.5h-42v-178h42
c68.667 0 130.334 23 185.001 69c64 54 96 124.667 96 212z" />
    <glyph glyph-name="Ntilde" unicode="&#xd1;" horiz-adv-x="631" 
d="M510 0l-55 0.000976562c-118 0 -216.833 35.5 -296.5 106.5s-119.5 158.833 -119.5 263.5c0 104 40 191.667 120 263s178.667 107 296 107h252l-197 -178h-41c-66 0 -121.333 -18.333 -166 -55s-67 -82.334 -67 -137.001c0 -54 22.5 -99.5 67.5 -136.5
s100.167 -55.5 165.5 -55.5h41v-178z" />
    <glyph glyph-name="Ntilde" unicode="&#x421;" horiz-adv-x="631" 
d="M510 0l-55 0.000976562c-118 0 -216.833 35.5 -296.5 106.5s-119.5 158.833 -119.5 263.5c0 104 40 191.667 120 263s178.667 107 296 107h252l-197 -178h-41c-66 0 -121.333 -18.333 -166 -55s-67 -82.334 -67 -137.001c0 -54 22.5 -99.5 67.5 -136.5
s100.167 -55.5 165.5 -55.5h41v-178z" />
    <glyph glyph-name="Ograve" unicode="&#xd2;" horiz-adv-x="549" 
d="M208 562v-562h197v562h41l197 178h-445l-197 -178h207z" />
    <glyph glyph-name="Ograve" unicode="&#x422;" horiz-adv-x="549" 
d="M208 562v-562h197v562h41l197 178h-445l-197 -178h207z" />
    <glyph glyph-name="Oacute" unicode="&#xd3;" horiz-adv-x="772" 
d="M41 -17l846 757h-294l-198 -178l-212 195l-139 -125l204 -201l-207 -190v-258z" />
    <glyph glyph-name="Oacute" unicode="&#x423;" horiz-adv-x="772" 
d="M41 -17l846 757h-294l-198 -178l-212 195l-139 -125l204 -201l-207 -190v-258z" />
    <glyph glyph-name="Ocircumflex" unicode="&#xd4;" horiz-adv-x="1078" 
d="M402 740c-97.333 0 -180 -36.333 -248 -109s-102 -159.334 -102 -260.001c0 -98.667 37.167 -185.167 111.5 -259.5s160.833 -111.5 259.5 -111.5h219v178v384c52.667 0 98.5 -19.167 137.5 -57.5s58.5 -83.5 58.5 -135.5c0 -50 -14.167 -92.5 -42.5 -127.5
s-65.166 -56.167 -110.499 -63.5v-178c97.333 0 180 36.333 248 109s102 159.334 102 260.001c0 98.667 -37.167 185.167 -111.5 259.5s-160.833 111.5 -259.5 111.5h-219v-562c-52 0 -97.667 19.333 -137 58s-59 83.667 -59 135c0 50 14.167 92.5 42.5 127.5
s65.166 56.167 110.499 63.5v178z" />
    <glyph glyph-name="Ocircumflex" unicode="&#x424;" horiz-adv-x="1078" 
d="M402 740c-97.333 0 -180 -36.333 -248 -109s-102 -159.334 -102 -260.001c0 -98.667 37.167 -185.167 111.5 -259.5s160.833 -111.5 259.5 -111.5h219v178v384c52.667 0 98.5 -19.167 137.5 -57.5s58.5 -83.5 58.5 -135.5c0 -50 -14.167 -92.5 -42.5 -127.5
s-65.166 -56.167 -110.499 -63.5v-178c97.333 0 180 36.333 248 109s102 159.334 102 260.001c0 98.667 -37.167 185.167 -111.5 259.5s-160.833 111.5 -259.5 111.5h-219v-562c-52 0 -97.667 19.333 -137 58s-59 83.667 -59 135c0 50 14.167 92.5 42.5 127.5
s65.166 56.167 110.499 63.5v178z" />
    <glyph glyph-name="Otilde" unicode="&#xd5;" horiz-adv-x="809" 
d="M386 300l355 -318v256l-211 192l346 310h-294l-198 -178l-212 195l-139 -125l204 -201l-208 -190v-263z" />
    <glyph glyph-name="Otilde" unicode="&#x425;" horiz-adv-x="809" 
d="M386 300l355 -318v256l-211 192l346 310h-294l-198 -178l-212 195l-139 -125l204 -201l-208 -190v-263z" />
    <glyph glyph-name="Odieresis" unicode="&#xd6;" horiz-adv-x="796" 
d="M503 740v-562h-249v562l-197 -178v-562h725v178h-82v562h-197z" />
    <glyph glyph-name="Odieresis" unicode="&#x426;" horiz-adv-x="796" 
d="M503 740v-562h-249v562l-197 -178v-562h725v178h-82v562h-197z" />
    <glyph glyph-name="multiply" unicode="&#xd7;" horiz-adv-x="692" 
d="M636 0v740.001h-197v-338h-93c-41.333 0 -68.833 6.83301 -82.5 20.5s-20.5 41.167 -20.5 82.5v250l-197 -178v-72c0 -96.667 17.333 -166.334 52 -209.001c39.333 -48 106.333 -72 201 -72h140v-224h197z" />
    <glyph glyph-name="multiply" unicode="&#x427;" horiz-adv-x="692" 
d="M636 0v740.001h-197v-338h-93c-41.333 0 -68.833 6.83301 -82.5 20.5s-20.5 41.167 -20.5 82.5v250l-197 -178v-72c0 -96.667 17.333 -166.334 52 -209.001c39.333 -48 106.333 -72 201 -72h140v-224h197z" />
    <glyph glyph-name="Oslash" unicode="&#xd8;" horiz-adv-x="956" 
d="M382 740v-562h-128v577l-197 -178v-577h847v740h-197v-562h-128v562h-197z" />
    <glyph glyph-name="Oslash" unicode="&#x428;" horiz-adv-x="956" 
d="M382 740v-562h-128v577l-197 -178v-577h847v740h-197v-562h-128v562h-197z" />
    <glyph glyph-name="Ugrave" unicode="&#xd9;" horiz-adv-x="1018" 
d="M580 178v562h-197v-562h-128v578l-197 -178v-578h950v178h-103v562h-197v-562h-128z" />
    <glyph glyph-name="Ugrave" unicode="&#x429;" horiz-adv-x="1018" 
d="M580 178v562h-197v-562h-128v578l-197 -178v-578h950v178h-103v562h-197v-562h-128z" />
    <glyph glyph-name="Uacute" unicode="&#xda;" horiz-adv-x="816" 
d="M175 562h-197l197 178h197v-562h88c27.333 0 51.333 9.66699 72 29s31 44 31 74c0 30.667 -10.167 55.5 -30.5 74.5s-44.5 28.5 -72.5 28.5h-42v178h61c68.667 0 130.334 -23 185.001 -69c64 -54 96 -124.667 96 -212c0 -86.667 -31.667 -157 -95 -211
c-54.667 -46.667 -116.334 -70 -185.001 -70h-305v562z" />
    <glyph glyph-name="Uacute" unicode="&#x42a;" horiz-adv-x="816" 
d="M175 562h-197l197 178h197v-562h88c27.333 0 51.333 9.66699 72 29s31 44 31 74c0 30.667 -10.167 55.5 -30.5 74.5s-44.5 28.5 -72.5 28.5h-42v178h61c68.667 0 130.334 -23 185.001 -69c64 -54 96 -124.667 96 -212c0 -86.667 -31.667 -157 -95 -211
c-54.667 -46.667 -116.334 -70 -185.001 -70h-305v562z" />
    <glyph glyph-name="Ucircumflex" unicode="&#xdb;" horiz-adv-x="982" 
d="M62 562l197 178v-562h88c27.333 0 51.333 9.66699 72 29s31 44 31 74c0 30.667 -10.167 55.5 -30.5 74.5s-44.5 28.5 -72.5 28.5h-42v178h61c68.667 0 130.334 -23 185.001 -69c64 -54 96 -124.667 96 -212c0 -86.667 -31.667 -157 -95 -211
c-54.667 -46.667 -116.334 -70 -185.001 -70h-305v562zM931 0v740h-197v-740h197z" />
    <glyph glyph-name="Ucircumflex" unicode="&#x42b;" horiz-adv-x="982" 
d="M62 562l197 178v-562h88c27.333 0 51.333 9.66699 72 29s31 44 31 74c0 30.667 -10.167 55.5 -30.5 74.5s-44.5 28.5 -72.5 28.5h-42v178h61c68.667 0 130.334 -23 185.001 -69c64 -54 96 -124.667 96 -212c0 -86.667 -31.667 -157 -95 -211
c-54.667 -46.667 -116.334 -70 -185.001 -70h-305v562zM931 0v740h-197v-740h197z" />
    <glyph glyph-name="Udieresis" unicode="&#xdc;" horiz-adv-x="674" 
d="M46 562l197 178v-562h88c27.333 0 51.333 9.66699 72 29s31 44 31 74c0 30.667 -10.167 55.5 -30.5 74.5s-44.5 28.5 -72.5 28.5h-42v178h61c68.667 0 130.334 -23 185.001 -69c64 -54 96 -124.667 96 -212c0 -86.667 -31.667 -157 -95 -211
c-54.667 -46.667 -116.334 -70 -185.001 -70h-305v562z" />
    <glyph glyph-name="Udieresis" unicode="&#x42c;" horiz-adv-x="674" 
d="M46 562l197 178v-562h88c27.333 0 51.333 9.66699 72 29s31 44 31 74c0 30.667 -10.167 55.5 -30.5 74.5s-44.5 28.5 -72.5 28.5h-42v178h61c68.667 0 130.334 -23 185.001 -69c64 -54 96 -124.667 96 -212c0 -86.667 -31.667 -157 -95 -211
c-54.667 -46.667 -116.334 -70 -185.001 -70h-305v562z" />
    <glyph glyph-name="Yacute" unicode="&#xdd;" horiz-adv-x="618" 
d="M33 461l0.00195312 -177.999h344c-12.667 -26.667 -38.334 -50 -77.001 -70c-45.333 -23.333 -98 -35 -158 -35h-109v-178h123c118.667 0 217.667 35.667 297 107s119 158.666 119 261.999c0 106.667 -31.833 195.167 -95.5 265.5s-145.834 105.5 -246.501 105.5
l-197 -178h109c62.667 0 114.5 -9.66699 155.5 -29s67.5 -43.333 79.5 -72h-344z" />
    <glyph glyph-name="Yacute" unicode="&#x42d;" horiz-adv-x="618" 
d="M33 461l0.00195312 -177.999h344c-12.667 -26.667 -38.334 -50 -77.001 -70c-45.333 -23.333 -98 -35 -158 -35h-109v-178h123c118.667 0 217.667 35.667 297 107s119 158.666 119 261.999c0 106.667 -31.833 195.167 -95.5 265.5s-145.834 105.5 -246.501 105.5
l-197 -178h109c62.667 0 114.5 -9.66699 155.5 -29s67.5 -43.333 79.5 -72h-344z" />
    <glyph glyph-name="Thorn" unicode="&#xde;" horiz-adv-x="1105" 
d="M851 370c0 -60 -12.001 -107.332 -36.001 -141.999c-27.333 -40 -68.666 -60 -123.999 -60c-54 0 -94.667 20 -122 60c-24 35.333 -36 82.666 -36 141.999c0 60 11.667 107.333 35 142c27.333 40 68.333 60 123 60c54 0 95 -20.333 123 -61c24.667 -36 37 -83 37 -141z
M253.999 0.000976562l0.00292969 281.001h90c13.333 -84.667 49.666 -153.334 108.999 -206.001c63.333 -56.667 142.666 -85 237.999 -85c103.333 0 187.666 33 252.999 99c69.333 70 104 163.667 104 281c0 118 -34.333 211.667 -103 281c-65.333 66 -150 99 -254 99
c-93.333 0 -172 -28.333 -236 -85c-60.667 -54 -97.667 -122.667 -111 -206h-90v291l-197 -178v-572h197z" />
    <glyph glyph-name="Thorn" unicode="&#x42e;" horiz-adv-x="1105" 
d="M851 370c0 -60 -12.001 -107.332 -36.001 -141.999c-27.333 -40 -68.666 -60 -123.999 -60c-54 0 -94.667 20 -122 60c-24 35.333 -36 82.666 -36 141.999c0 60 11.667 107.333 35 142c27.333 40 68.333 60 123 60c54 0 95 -20.333 123 -61c24.667 -36 37 -83 37 -141z
M253.999 0.000976562l0.00292969 281.001h90c13.333 -84.667 49.666 -153.334 108.999 -206.001c63.333 -56.667 142.666 -85 237.999 -85c103.333 0 187.666 33 252.999 99c69.333 70 104 163.667 104 281c0 118 -34.333 211.667 -103 281c-65.333 66 -150 99 -254 99
c-93.333 0 -172 -28.333 -236 -85c-60.667 -54 -97.667 -122.667 -111 -206h-90v291l-197 -178v-572h197z" />
    <glyph glyph-name="germandbls" unicode="&#xdf;" horiz-adv-x="677" 
d="M628 0h-197.001v562h-88c-40.667 0 -68.667 -9.33301 -84 -28c-12.667 -15.333 -19 -40.333 -19 -75c0 -30 10.167 -54.5 30.5 -73.5s44.5 -28.5 72.5 -28.5h77l-389 -369v260l101 88c-25.333 22 -44.666 42.667 -57.999 62c-20.667 30 -31 61.667 -31 95
c0 80 25.5 141.167 76.5 183.5s125.167 63.5 222.5 63.5h286v-740z" />
    <glyph glyph-name="germandbls" unicode="&#x42f;" horiz-adv-x="677" 
d="M628 0h-197.001v562h-88c-40.667 0 -68.667 -9.33301 -84 -28c-12.667 -15.333 -19 -40.333 -19 -75c0 -30 10.167 -54.5 30.5 -73.5s44.5 -28.5 72.5 -28.5h77l-389 -369v260l101 88c-25.333 22 -44.666 42.667 -57.999 62c-20.667 30 -31 61.667 -31 95
c0 80 25.5 141.167 76.5 183.5s125.167 63.5 222.5 63.5h286v-740z" />
    <glyph glyph-name="agrave" unicode="&#xe0;" horiz-adv-x="829" 
d="M559 740l-548 -496v-261l548 494v-196h-155l-198 -181h353v-100h197v740h-197z" />
    <glyph glyph-name="agrave" unicode="&#x430;" horiz-adv-x="829" 
d="M559 740l-548 -496v-261l548 494v-196h-155l-198 -181h353v-100h197v740h-197z" />
    <glyph glyph-name="aacute" unicode="&#xe1;" horiz-adv-x="781" 
d="M256 562l-0.000976562 -383.999h215c15.333 0 27.333 4.66699 36 14s13 22 13 38c0 15.333 -4.33301 27.666 -13 36.999s-20.667 14 -36 14h-172v178h211c58.667 0 107.834 -20.833 147.501 -62.5s59.5 -96.5 59.5 -164.5c0 -61.333 -20.333 -115.333 -61 -162
s-89 -70 -145 -70h-452v562l197 178h594l-197 -178h-397z" />
    <glyph glyph-name="aacute" unicode="&#x431;" horiz-adv-x="781" 
d="M256 562l-0.000976562 -383.999h215c15.333 0 27.333 4.66699 36 14s13 22 13 38c0 15.333 -4.33301 27.666 -13 36.999s-20.667 14 -36 14h-172v178h211c58.667 0 107.834 -20.833 147.501 -62.5s59.5 -96.5 59.5 -164.5c0 -61.333 -20.333 -115.333 -61 -162
s-89 -70 -145 -70h-452v562l197 178h594l-197 -178h-397z" />
    <glyph glyph-name="acircumflex" unicode="&#xe2;" horiz-adv-x="761" 
d="M464 459l-172 -0.000976562v-178h172c15.333 0 27.333 -4.66699 36 -14s13 -21.666 13 -36.999c0 -14.667 -4.33301 -27 -13 -37s-20.667 -15 -36 -15h-172v-178h209c58.667 0 108.167 21.167 148.5 63.5s60.5 97.833 60.5 166.5c0 32 -8.16699 61.167 -24.5 87.5
s-36.833 43.166 -61.5 50.499c26 14 46.833 33.167 62.5 57.5s23.5 52.833 23.5 85.5c0 68 -19.833 123.167 -59.5 165.5s-89.5 63.5 -149.5 63.5h-253l-197 -178v-562h197v562h216c15.333 0 27.333 -4.66699 36 -14s13 -21.666 13 -36.999c0 -14.667 -4.33301 -27 -13 -37
s-20.667 -15 -36 -15z" />
    <glyph glyph-name="acircumflex" unicode="&#x432;" horiz-adv-x="761" 
d="M464 459l-172 -0.000976562v-178h172c15.333 0 27.333 -4.66699 36 -14s13 -21.666 13 -36.999c0 -14.667 -4.33301 -27 -13 -37s-20.667 -15 -36 -15h-172v-178h209c58.667 0 108.167 21.167 148.5 63.5s60.5 97.833 60.5 166.5c0 32 -8.16699 61.167 -24.5 87.5
s-36.833 43.166 -61.5 50.499c26 14 46.833 33.167 62.5 57.5s23.5 52.833 23.5 85.5c0 68 -19.833 123.167 -59.5 165.5s-89.5 63.5 -149.5 63.5h-253l-197 -178v-562h197v562h216c15.333 0 27.333 -4.66699 36 -14s13 -21.666 13 -36.999c0 -14.667 -4.33301 -27 -13 -37
s-20.667 -15 -36 -15z" />
    <glyph glyph-name="atilde" unicode="&#xe3;" horiz-adv-x="582" 
d="M477 562l196 178h-423l-197 -178v-562h197v562h227z" />
    <glyph glyph-name="atilde" unicode="&#x433;" horiz-adv-x="582" 
d="M477 562l196 178h-423l-197 -178v-562h197v562h227z" />
    <glyph glyph-name="adieresis" unicode="&#xe4;" horiz-adv-x="892" 
d="M632 740l-574 -519h288l286 256v-299h-618v-178h618h197v740h-197z" />
    <glyph glyph-name="adieresis" unicode="&#x434;" horiz-adv-x="892" 
d="M632 740l-574 -519h288l286 256v-299h-618v-178h618h197v740h-197z" />
    <glyph glyph-name="aring" unicode="&#xe5;" horiz-adv-x="687" 
d="M57 0v459v103l197 178h508l-197 -178h-311v-103h311v-178h-311v-103h311v-178h-508z" />
    <glyph glyph-name="aring" unicode="&#x435;" horiz-adv-x="687" 
d="M57 0v459v103l197 178h508l-197 -178h-311v-103h311v-178h-311v-103h311v-178h-508z" />
    <glyph glyph-name="ae" unicode="&#xe6;" horiz-adv-x="1143" 
d="M407 420v302h197v-303l332 303h270l-369 -352l163 -149v-256l-307 275l-89 -81v-177h-197v178l-89 81l-307 -275v256l163 149l-250 239l138 124z" />
    <glyph glyph-name="ae" unicode="&#x436;" horiz-adv-x="1143" 
d="M407 420v302h197v-303l332 303h270l-369 -352l163 -149v-256l-307 275l-89 -81v-177h-197v178l-89 81l-307 -275v256l163 149l-250 239l138 124z" />
    <glyph glyph-name="ccedilla" unicode="&#xe7;" horiz-adv-x="610" 
d="M57 459v-178.001h262c15.333 0 27.333 -4.66699 36 -14s13 -21.666 13 -36.999c0 -14.667 -4.33301 -27 -13 -37s-20.667 -15 -36 -15h-262v-178h300c58.667 0 108.167 21.167 148.5 63.5s60.5 97.833 60.5 166.5c0 32 -8.16699 61.167 -24.5 87.5
s-36.833 43.166 -61.5 50.499c26 14 46.833 33.167 62.5 57.5s23.5 52.833 23.5 85.5c0 68 -19.833 123.167 -59.5 165.5s-89.5 63.5 -149.5 63.5h-103l-197 -178h262c15.333 0 27.333 -4.66699 36 -14s13 -21.666 13 -36.999c0 -14.667 -4.33301 -27 -13 -37
s-20.667 -15 -36 -15h-262z" />
    <glyph glyph-name="ccedilla" unicode="&#x437;" horiz-adv-x="610" 
d="M57 459v-178.001h262c15.333 0 27.333 -4.66699 36 -14s13 -21.666 13 -36.999c0 -14.667 -4.33301 -27 -13 -37s-20.667 -15 -36 -15h-262v-178h300c58.667 0 108.167 21.167 148.5 63.5s60.5 97.833 60.5 166.5c0 32 -8.16699 61.167 -24.5 87.5
s-36.833 43.166 -61.5 50.499c26 14 46.833 33.167 62.5 57.5s23.5 52.833 23.5 85.5c0 68 -19.833 123.167 -59.5 165.5s-89.5 63.5 -149.5 63.5h-103l-197 -178h262c15.333 0 27.333 -4.66699 36 -14s13 -21.666 13 -36.999c0 -14.667 -4.33301 -27 -13 -37
s-20.667 -15 -36 -15h-262z" />
    <glyph glyph-name="egrave" unicode="&#xe8;" horiz-adv-x="819" 
d="M56 577v-316v-274l510 459v-446h197v740h-169l-341 -310v325z" />
    <glyph glyph-name="egrave" unicode="&#x438;" horiz-adv-x="819" 
d="M56 577v-316v-274l510 459v-446h197v740h-169l-341 -310v325z" />
    <glyph glyph-name="eacute" unicode="&#xe9;" horiz-adv-x="817" 
d="M54 577v-316v-274l510 459v-446h197v740h-169l-341 -310v325zM295 740h218l-218 -197v197z" />
    <glyph glyph-name="eacute" unicode="&#x439;" horiz-adv-x="817" 
d="M54 577v-316v-274l510 459v-446h197v740h-169l-341 -310v325zM295 740h218l-218 -197v197z" />
    <glyph glyph-name="ecircumflex" unicode="&#xea;" horiz-adv-x="760" 
d="M253 437v319l-197 -178v-317v-261h197v177l89 81l307 -275v256l-163 149l369 352h-270z" />
    <glyph glyph-name="ecircumflex" unicode="&#x43a;" horiz-adv-x="760" 
d="M253 437v319l-197 -178v-317v-261h197v177l89 81l307 -275v256l-163 149l369 352h-270z" />
    <glyph glyph-name="edieresis" unicode="&#xeb;" horiz-adv-x="825" 
d="M765 0v740h-197l-547 -495v-261l547 493v-477h197z" />
    <glyph glyph-name="edieresis" unicode="&#x43b;" horiz-adv-x="825" 
d="M765 0v740h-197l-547 -495v-261l547 493v-477h197z" />
    <glyph glyph-name="igrave" unicode="&#xec;" horiz-adv-x="947" 
d="M22 246v-261l328 296v-297l333 297v-281h207v759l-301 -264v263z" />
    <glyph glyph-name="igrave" unicode="&#x43c;" horiz-adv-x="947" 
d="M22 246v-261l328 296v-297l333 297v-281h207v759l-301 -264v263z" />
    <glyph glyph-name="iacute" unicode="&#xed;" horiz-adv-x="751" 
d="M252 459v299l-197 -178v-580h197v281h250v-281h197v740h-197v-281h-250z" />
    <glyph glyph-name="iacute" unicode="&#x43d;" horiz-adv-x="751" 
d="M252 459v299l-197 -178v-580h197v281h250v-281h197v740h-197v-281h-250z" />
    <glyph glyph-name="icircumflex" unicode="&#xee;" horiz-adv-x="809" 
d="M401 750c-102.667 0 -186.666 -33.001 -251.999 -99.001c-68.667 -69.333 -103 -163 -103 -281s34.333 -211.667 103 -281c65.333 -66 149.333 -99 252 -99c103.333 0 187.666 33 252.999 99c69.333 70 104 163.667 104 281c0 118.667 -34 212.334 -102 281.001
c-65.333 66 -150.333 99 -255 99zM561.001 369.999c0 -60 -12.001 -107.332 -36.001 -141.999c-27.333 -40 -68.666 -60 -123.999 -60c-54 0 -94.667 20 -122 60c-24 35.333 -36 82.666 -36 141.999c0 60 11.667 107.333 35 142c27.333 40 68.333 60 123 60
c54 0 95 -20.333 123 -61c24.667 -36 37 -83 37 -141z" />
    <glyph glyph-name="icircumflex" unicode="&#x43e;" horiz-adv-x="809" 
d="M401 750c-102.667 0 -186.666 -33.001 -251.999 -99.001c-68.667 -69.333 -103 -163 -103 -281s34.333 -211.667 103 -281c65.333 -66 149.333 -99 252 -99c103.333 0 187.666 33 252.999 99c69.333 70 104 163.667 104 281c0 118.667 -34 212.334 -102 281.001
c-65.333 66 -150.333 99 -255 99zM561.001 369.999c0 -60 -12.001 -107.332 -36.001 -141.999c-27.333 -40 -68.666 -60 -123.999 -60c-54 0 -94.667 20 -122 60c-24 35.333 -36 82.666 -36 141.999c0 60 11.667 107.333 35 142c27.333 40 68.333 60 123 60
c54 0 95 -20.333 123 -61c24.667 -36 37 -83 37 -141z" />
    <glyph glyph-name="idieresis" unicode="&#xef;" horiz-adv-x="740" 
d="M248 740l-197 -178v-562h197v562h251v-562h197v740h-448z" />
    <glyph glyph-name="idieresis" unicode="&#x43f;" horiz-adv-x="740" 
d="M248 740l-197 -178v-562h197v562h251v-562h197v740h-448z" />
    <glyph glyph-name="eth" unicode="&#xf0;" horiz-adv-x="655" 
d="M619 459c0 86.667 -31.667 157 -95 211c-54.667 46.667 -116.334 70 -185.001 70h-89l-197 -178v-562h197v562h88c27.333 0 51.333 -9.66699 72 -29s31 -44 31 -74c0 -30.667 -10.167 -55.5 -30.5 -74.5s-44.5 -28.5 -72.5 -28.5h-42v-178h42
c68.667 0 130.334 23 185.001 69c64 54 96 124.667 96 212z" />
    <glyph glyph-name="eth" unicode="&#x440;" horiz-adv-x="655" 
d="M619 459c0 86.667 -31.667 157 -95 211c-54.667 46.667 -116.334 70 -185.001 70h-89l-197 -178v-562h197v562h88c27.333 0 51.333 -9.66699 72 -29s31 -44 31 -74c0 -30.667 -10.167 -55.5 -30.5 -74.5s-44.5 -28.5 -72.5 -28.5h-42v-178h42
c68.667 0 130.334 23 185.001 69c64 54 96 124.667 96 212z" />
    <glyph glyph-name="ntilde" unicode="&#xf1;" horiz-adv-x="631" 
d="M510 0l-55 0.000976562c-118 0 -216.833 35.5 -296.5 106.5s-119.5 158.833 -119.5 263.5c0 104 40 191.667 120 263s178.667 107 296 107h252l-197 -178h-41c-66 0 -121.333 -18.333 -166 -55s-67 -82.334 -67 -137.001c0 -54 22.5 -99.5 67.5 -136.5
s100.167 -55.5 165.5 -55.5h41v-178z" />
    <glyph glyph-name="ntilde" unicode="&#x441;" horiz-adv-x="631" 
d="M510 0l-55 0.000976562c-118 0 -216.833 35.5 -296.5 106.5s-119.5 158.833 -119.5 263.5c0 104 40 191.667 120 263s178.667 107 296 107h252l-197 -178h-41c-66 0 -121.333 -18.333 -166 -55s-67 -82.334 -67 -137.001c0 -54 22.5 -99.5 67.5 -136.5
s100.167 -55.5 165.5 -55.5h41v-178z" />
    <glyph glyph-name="ograve" unicode="&#xf2;" horiz-adv-x="549" 
d="M208 562v-562h197v562h41l197 178h-445l-197 -178h207z" />
    <glyph glyph-name="ograve" unicode="&#x442;" horiz-adv-x="549" 
d="M208 562v-562h197v562h41l197 178h-445l-197 -178h207z" />
    <glyph glyph-name="oacute" unicode="&#xf3;" horiz-adv-x="772" 
d="M41 -17l846 757h-294l-198 -178l-212 195l-139 -125l204 -201l-207 -190v-258z" />
    <glyph glyph-name="oacute" unicode="&#x443;" horiz-adv-x="772" 
d="M41 -17l846 757h-294l-198 -178l-212 195l-139 -125l204 -201l-207 -190v-258z" />
    <glyph glyph-name="ocircumflex" unicode="&#xf4;" horiz-adv-x="1078" 
d="M402 740c-97.333 0 -180 -36.333 -248 -109s-102 -159.334 -102 -260.001c0 -98.667 37.167 -185.167 111.5 -259.5s160.833 -111.5 259.5 -111.5h219v178v384c52.667 0 98.5 -19.167 137.5 -57.5s58.5 -83.5 58.5 -135.5c0 -50 -14.167 -92.5 -42.5 -127.5
s-65.166 -56.167 -110.499 -63.5v-178c97.333 0 180 36.333 248 109s102 159.334 102 260.001c0 98.667 -37.167 185.167 -111.5 259.5s-160.833 111.5 -259.5 111.5h-219v-562c-52 0 -97.667 19.333 -137 58s-59 83.667 -59 135c0 50 14.167 92.5 42.5 127.5
s65.166 56.167 110.499 63.5v178z" />
    <glyph glyph-name="ocircumflex" unicode="&#x444;" horiz-adv-x="1078" 
d="M402 740c-97.333 0 -180 -36.333 -248 -109s-102 -159.334 -102 -260.001c0 -98.667 37.167 -185.167 111.5 -259.5s160.833 -111.5 259.5 -111.5h219v178v384c52.667 0 98.5 -19.167 137.5 -57.5s58.5 -83.5 58.5 -135.5c0 -50 -14.167 -92.5 -42.5 -127.5
s-65.166 -56.167 -110.499 -63.5v-178c97.333 0 180 36.333 248 109s102 159.334 102 260.001c0 98.667 -37.167 185.167 -111.5 259.5s-160.833 111.5 -259.5 111.5h-219v-562c-52 0 -97.667 19.333 -137 58s-59 83.667 -59 135c0 50 14.167 92.5 42.5 127.5
s65.166 56.167 110.499 63.5v178z" />
    <glyph glyph-name="otilde" unicode="&#xf5;" horiz-adv-x="809" 
d="M386 300l355 -318v256l-211 192l346 310h-294l-198 -178l-212 195l-139 -125l204 -201l-208 -190v-263z" />
    <glyph glyph-name="otilde" unicode="&#x445;" horiz-adv-x="809" 
d="M386 300l355 -318v256l-211 192l346 310h-294l-198 -178l-212 195l-139 -125l204 -201l-208 -190v-263z" />
    <glyph glyph-name="odieresis" unicode="&#xf6;" horiz-adv-x="796" 
d="M503 740v-562h-249v562l-197 -178v-562h725v178h-82v562h-197z" />
    <glyph glyph-name="odieresis" unicode="&#x446;" horiz-adv-x="796" 
d="M503 740v-562h-249v562l-197 -178v-562h725v178h-82v562h-197z" />
    <glyph glyph-name="divide" unicode="&#xf7;" horiz-adv-x="692" 
d="M636 0v740.001h-197v-338h-93c-41.333 0 -68.833 6.83301 -82.5 20.5s-20.5 41.167 -20.5 82.5v250l-197 -178v-72c0 -96.667 17.333 -166.334 52 -209.001c39.333 -48 106.333 -72 201 -72h140v-224h197z" />
    <glyph glyph-name="divide" unicode="&#x447;" horiz-adv-x="692" 
d="M636 0v740.001h-197v-338h-93c-41.333 0 -68.833 6.83301 -82.5 20.5s-20.5 41.167 -20.5 82.5v250l-197 -178v-72c0 -96.667 17.333 -166.334 52 -209.001c39.333 -48 106.333 -72 201 -72h140v-224h197z" />
    <glyph glyph-name="oslash" unicode="&#xf8;" horiz-adv-x="956" 
d="M382 740v-562h-128v577l-197 -178v-577h847v740h-197v-562h-128v562h-197z" />
    <glyph glyph-name="oslash" unicode="&#x448;" horiz-adv-x="956" 
d="M382 740v-562h-128v577l-197 -178v-577h847v740h-197v-562h-128v562h-197z" />
    <glyph glyph-name="ugrave" unicode="&#xf9;" horiz-adv-x="1018" 
d="M580 178v562h-197v-562h-128v578l-197 -178v-578h950v178h-103v562h-197v-562h-128z" />
    <glyph glyph-name="ugrave" unicode="&#x449;" horiz-adv-x="1018" 
d="M580 178v562h-197v-562h-128v578l-197 -178v-578h950v178h-103v562h-197v-562h-128z" />
    <glyph glyph-name="uacute" unicode="&#xfa;" horiz-adv-x="816" 
d="M175 562h-197l197 178h197v-562h88c27.333 0 51.333 9.66699 72 29s31 44 31 74c0 30.667 -10.167 55.5 -30.5 74.5s-44.5 28.5 -72.5 28.5h-42v178h61c68.667 0 130.334 -23 185.001 -69c64 -54 96 -124.667 96 -212c0 -86.667 -31.667 -157 -95 -211
c-54.667 -46.667 -116.334 -70 -185.001 -70h-305v562z" />
    <glyph glyph-name="uacute" unicode="&#x44a;" horiz-adv-x="816" 
d="M175 562h-197l197 178h197v-562h88c27.333 0 51.333 9.66699 72 29s31 44 31 74c0 30.667 -10.167 55.5 -30.5 74.5s-44.5 28.5 -72.5 28.5h-42v178h61c68.667 0 130.334 -23 185.001 -69c64 -54 96 -124.667 96 -212c0 -86.667 -31.667 -157 -95 -211
c-54.667 -46.667 -116.334 -70 -185.001 -70h-305v562z" />
    <glyph glyph-name="ucircumflex" unicode="&#xfb;" horiz-adv-x="982" 
d="M62 562l197 178v-562h88c27.333 0 51.333 9.66699 72 29s31 44 31 74c0 30.667 -10.167 55.5 -30.5 74.5s-44.5 28.5 -72.5 28.5h-42v178h61c68.667 0 130.334 -23 185.001 -69c64 -54 96 -124.667 96 -212c0 -86.667 -31.667 -157 -95 -211
c-54.667 -46.667 -116.334 -70 -185.001 -70h-305v562zM931 0v740h-197v-740h197z" />
    <glyph glyph-name="ucircumflex" unicode="&#x44b;" horiz-adv-x="982" 
d="M62 562l197 178v-562h88c27.333 0 51.333 9.66699 72 29s31 44 31 74c0 30.667 -10.167 55.5 -30.5 74.5s-44.5 28.5 -72.5 28.5h-42v178h61c68.667 0 130.334 -23 185.001 -69c64 -54 96 -124.667 96 -212c0 -86.667 -31.667 -157 -95 -211
c-54.667 -46.667 -116.334 -70 -185.001 -70h-305v562zM931 0v740h-197v-740h197z" />
    <glyph glyph-name="udieresis" unicode="&#xfc;" horiz-adv-x="674" 
d="M46 562l197 178v-562h88c27.333 0 51.333 9.66699 72 29s31 44 31 74c0 30.667 -10.167 55.5 -30.5 74.5s-44.5 28.5 -72.5 28.5h-42v178h61c68.667 0 130.334 -23 185.001 -69c64 -54 96 -124.667 96 -212c0 -86.667 -31.667 -157 -95 -211
c-54.667 -46.667 -116.334 -70 -185.001 -70h-305v562z" />
    <glyph glyph-name="udieresis" unicode="&#x44c;" horiz-adv-x="674" 
d="M46 562l197 178v-562h88c27.333 0 51.333 9.66699 72 29s31 44 31 74c0 30.667 -10.167 55.5 -30.5 74.5s-44.5 28.5 -72.5 28.5h-42v178h61c68.667 0 130.334 -23 185.001 -69c64 -54 96 -124.667 96 -212c0 -86.667 -31.667 -157 -95 -211
c-54.667 -46.667 -116.334 -70 -185.001 -70h-305v562z" />
    <glyph glyph-name="yacute" unicode="&#xfd;" horiz-adv-x="618" 
d="M33 461l0.00195312 -177.999h344c-12.667 -26.667 -38.334 -50 -77.001 -70c-45.333 -23.333 -98 -35 -158 -35h-109v-178h123c118.667 0 217.667 35.667 297 107s119 158.666 119 261.999c0 106.667 -31.833 195.167 -95.5 265.5s-145.834 105.5 -246.501 105.5
l-197 -178h109c62.667 0 114.5 -9.66699 155.5 -29s67.5 -43.333 79.5 -72h-344z" />
    <glyph glyph-name="yacute" unicode="&#x44d;" horiz-adv-x="618" 
d="M33 461l0.00195312 -177.999h344c-12.667 -26.667 -38.334 -50 -77.001 -70c-45.333 -23.333 -98 -35 -158 -35h-109v-178h123c118.667 0 217.667 35.667 297 107s119 158.666 119 261.999c0 106.667 -31.833 195.167 -95.5 265.5s-145.834 105.5 -246.501 105.5
l-197 -178h109c62.667 0 114.5 -9.66699 155.5 -29s67.5 -43.333 79.5 -72h-344z" />
    <glyph glyph-name="thorn" unicode="&#xfe;" horiz-adv-x="1105" 
d="M851 370c0 -60 -12.001 -107.332 -36.001 -141.999c-27.333 -40 -68.666 -60 -123.999 -60c-54 0 -94.667 20 -122 60c-24 35.333 -36 82.666 -36 141.999c0 60 11.667 107.333 35 142c27.333 40 68.333 60 123 60c54 0 95 -20.333 123 -61c24.667 -36 37 -83 37 -141z
M253.999 0.000976562l0.00292969 281.001h90c13.333 -84.667 49.666 -153.334 108.999 -206.001c63.333 -56.667 142.666 -85 237.999 -85c103.333 0 187.666 33 252.999 99c69.333 70 104 163.667 104 281c0 118 -34.333 211.667 -103 281c-65.333 66 -150 99 -254 99
c-93.333 0 -172 -28.333 -236 -85c-60.667 -54 -97.667 -122.667 -111 -206h-90v291l-197 -178v-572h197z" />
    <glyph glyph-name="thorn" unicode="&#x44e;" horiz-adv-x="1105" 
d="M851 370c0 -60 -12.001 -107.332 -36.001 -141.999c-27.333 -40 -68.666 -60 -123.999 -60c-54 0 -94.667 20 -122 60c-24 35.333 -36 82.666 -36 141.999c0 60 11.667 107.333 35 142c27.333 40 68.333 60 123 60c54 0 95 -20.333 123 -61c24.667 -36 37 -83 37 -141z
M253.999 0.000976562l0.00292969 281.001h90c13.333 -84.667 49.666 -153.334 108.999 -206.001c63.333 -56.667 142.666 -85 237.999 -85c103.333 0 187.666 33 252.999 99c69.333 70 104 163.667 104 281c0 118 -34.333 211.667 -103 281c-65.333 66 -150 99 -254 99
c-93.333 0 -172 -28.333 -236 -85c-60.667 -54 -97.667 -122.667 -111 -206h-90v291l-197 -178v-572h197z" />
    <glyph glyph-name="ydieresis" unicode="&#xff;" horiz-adv-x="677" 
d="M628 0h-197.001v562h-88c-40.667 0 -68.667 -9.33301 -84 -28c-12.667 -15.333 -19 -40.333 -19 -75c0 -30 10.167 -54.5 30.5 -73.5s44.5 -28.5 72.5 -28.5h77l-389 -369v260l101 88c-25.333 22 -44.666 42.667 -57.999 62c-20.667 30 -31 61.667 -31 95
c0 80 25.5 141.167 76.5 183.5s125.167 63.5 222.5 63.5h286v-740z" />
    <glyph glyph-name="ydieresis" unicode="&#x44f;" horiz-adv-x="677" 
d="M628 0h-197.001v562h-88c-40.667 0 -68.667 -9.33301 -84 -28c-12.667 -15.333 -19 -40.333 -19 -75c0 -30 10.167 -54.5 30.5 -73.5s44.5 -28.5 72.5 -28.5h77l-389 -369v260l101 88c-25.333 22 -44.666 42.667 -57.999 62c-20.667 30 -31 61.667 -31 95
c0 80 25.5 141.167 76.5 183.5s125.167 63.5 222.5 63.5h286v-740z" />
    <glyph glyph-name="tilde" unicode="&#x2dc;" horiz-adv-x="380" 
d="M53 911c11.333 8.66699 23.665 15.499 36.998 20.499s26.666 7.5 39.999 7.5s24.666 -1.33301 33.999 -4s23.333 -7.66699 42 -15l30 -8.5c10.667 -3 20 -4.5 28 -4.5c12 0 22.5 2.5 31.5 7.5s18.167 12.5 27.5 22.5v-123c-21.333 -15.333 -44.666 -23 -69.999 -23
c-12 0 -22.167 0.833008 -30.5 2.5s-19.166 4.83398 -32.499 9.50098l-33 11c-5.33301 2.66699 -11.666 4.66699 -18.999 6s-14.666 2 -21.999 2c-12.667 0 -24 -2.5 -34 -7.5s-19.667 -12.833 -29 -23.5v120z" />
    <glyph glyph-name="endash" unicode="&#x2013;" horiz-adv-x="686" 
d="M633 417v-173h-583v173h583z" />
    <glyph glyph-name="emdash" unicode="&#x2014;" horiz-adv-x="932" 
d="M882 417v-173h-833v173h833z" />
    <glyph glyph-name="quoteleft" unicode="&#x2018;" horiz-adv-x="288" 
d="M152 480c-29.333 0 -54.168 10.167 -74.501 30.5s-30.5 45.166 -30.5 74.499c0 20.667 6 40.667 18 60c4.66699 7.33301 9.66699 13.333 15 18l112 101v-82c43.333 -18.667 65 -51 65 -97c0 -29.333 -10.167 -54.166 -30.5 -74.499s-45.166 -30.5 -74.499 -30.5z" />
    <glyph glyph-name="quoteright" unicode="&#x2019;" horiz-adv-x="288" 
d="M151 682c29.333 0 54.168 -10.167 74.501 -30.5s30.5 -45.166 30.5 -74.499c0 -20.667 -6 -40.667 -18 -60c-4.66699 -7.33301 -9.66699 -13.333 -15 -18l-112 -101v82c-43.333 18.667 -65 51 -65 97c0 29.333 10.167 54.166 30.5 74.499s45.166 30.5 74.499 30.5z" />
    <glyph glyph-name="quotesinglbase" unicode="&#x201a;" horiz-adv-x="257" 
d="M127 202c29.333 0 54.168 -10.167 74.501 -30.5s30.5 -45.166 30.5 -74.499c0 -20.667 -6 -40.667 -18 -60c-4.66699 -7.33301 -9.66699 -13.333 -15 -18l-112 -101v82c-43.333 18.667 -65 51 -65 97c0 29.333 10.167 54.166 30.5 74.499s45.166 30.5 74.499 30.5z" />
    <glyph glyph-name="quotedblleft" unicode="&#x201c;" horiz-adv-x="547" 
d="M141 480c-29.333 0 -54.168 10.167 -74.501 30.5s-30.5 45.166 -30.5 74.499c0 20.667 6 40.667 18 60c4.66699 7.33301 9.66699 13.333 15 18l112 101v-82c43.333 -18.667 65 -51 65 -97c0 -29.333 -10.167 -54.166 -30.5 -74.499s-45.166 -30.5 -74.499 -30.5z
M410.998 480c-29.333 0 -54.168 10.167 -74.501 30.5s-30.5 45.166 -30.5 74.499c0 20.667 6 40.667 18 60c4.66699 7.33301 9.66699 13.333 15 18l112 101v-82c43.333 -18.667 65 -51 65 -97c0 -29.333 -10.167 -54.166 -30.5 -74.499s-45.166 -30.5 -74.499 -30.5z" />
    <glyph glyph-name="quotedblright" unicode="&#x201d;" horiz-adv-x="563" 
d="M151 682c29.333 0 54.168 -10.167 74.501 -30.5s30.5 -45.166 30.5 -74.499c0 -20.667 -6 -40.667 -18 -60c-4.66699 -7.33301 -9.66699 -13.333 -15 -18l-112 -101v82c-43.333 18.667 -65 51 -65 97c0 29.333 10.167 54.166 30.5 74.499s45.166 30.5 74.499 30.5z
M422.002 682c29.333 0 54.168 -10.167 74.501 -30.5s30.5 -45.166 30.5 -74.499c0 -20.667 -6 -40.667 -18 -60c-4.66699 -7.33301 -9.66699 -13.333 -15 -18l-112 -101v82c-43.333 18.667 -65 51 -65 97c0 29.333 10.167 54.166 30.5 74.499s45.166 30.5 74.499 30.5z" />
    <glyph glyph-name="quotedblbase" unicode="&#x201e;" horiz-adv-x="526" 
d="M127 202c29.333 0 54.1689 -10.167 74.502 -30.5s30.5 -45.166 30.5 -74.499c0 -16 -3.83301 -31.5 -11.5 -46.5s-14.834 -25.5 -21.501 -31.5l-112 -101v82c-43.333 18.667 -65 51 -65 97c0 29.333 10.167 54.166 30.5 74.499s45.166 30.5 74.499 30.5zM398.003 201
c29.333 0 54.168 -10.167 74.501 -30.5s30.5 -45.166 30.5 -74.499c0 -20.667 -6 -40.667 -18 -60c-4.66699 -7.33301 -9.66699 -13.333 -15 -18l-112 -101v82c-43.333 18.667 -65 51 -65 97c0 29.333 10.167 54.166 30.5 74.499s45.166 30.5 74.499 30.5z" />
    <glyph glyph-name="daggerdbl" unicode="&#x2021;" horiz-adv-x="566" 
d="M558 176v-175.999h-506l48 512c8 85.333 32 144.166 72 176.499s103.333 48.5 190 48.5l81 1h198l-197 -178h-61c-36.667 0 -60.667 -9 -72 -27c-8.66699 -14 -13 -40.667 -13 -80h149v-177h-166l-7 -100h284z" />
    <glyph glyph-name="bullet" unicode="&#x2022;" horiz-adv-x="421" 
d="M204 530c41.333 0 77 -15.333 107 -46s45 -66.667 45 -108c0 -42 -14.667 -78.333 -44 -109s-65.333 -46 -108 -46c-42 0 -78 15.333 -108 46s-45 67 -45 109c0 41.333 15 77.333 45 108s66 46 108 46z" />
    <glyph glyph-name="ellipsis" unicode="&#x2026;" horiz-adv-x="802" 
d="M126 195c29.333 0 54.166 -10.167 74.499 -30.5s30.5 -45.166 30.5 -74.499s-10.167 -54.166 -30.5 -74.499s-45.166 -30.5 -74.499 -30.5s-54.166 10.167 -74.499 30.5s-30.5 45.166 -30.5 74.499s10.167 54.166 30.5 74.499s45.166 30.5 74.499 30.5zM399 195
c29.333 0 54.166 -10.167 74.499 -30.5s30.5 -45.166 30.5 -74.499s-10.167 -54.166 -30.5 -74.499s-45.166 -30.5 -74.499 -30.5s-54.166 10.167 -74.499 30.5s-30.5 45.166 -30.5 74.499s10.167 54.166 30.5 74.499s45.166 30.5 74.499 30.5zM672 195
c29.333 0 54.166 -10.167 74.499 -30.5s30.5 -45.166 30.5 -74.499s-10.167 -54.166 -30.5 -74.499s-45.166 -30.5 -74.499 -30.5s-54.166 10.167 -74.499 30.5s-30.5 45.166 -30.5 74.499s10.167 54.166 30.5 74.499s45.166 30.5 74.499 30.5z" />
    <glyph glyph-name="guilsinglleft" unicode="&#x2039;" horiz-adv-x="424" 
d="M379 578l-145 -229l145 -224h-209l-145 224l145 229h209z" />
    <glyph glyph-name="guilsinglright" unicode="&#x203a;" horiz-adv-x="424" 
d="M379 578l-145 -229l145 -224h-209l-145 224l145 229h209z" />
    <glyph glyph-name="trademark" unicode="&#x2122;" horiz-adv-x="811" 
d="M129 635v-311h109v311h22l110 99h-246l-110 -99h115zM286 458v-143l180 163v-163l181 163v-154h113v415l-165 -145v144z" />
    <glyph glyph-name=".null" horiz-adv-x="0" 
 />
    <glyph glyph-name="nonmarkingreturn" horiz-adv-x="404" 
 />
    </font>
</defs>
</svg>
